<svg xmlns="http://www.w3.org/2000/svg" width="1200" height="730" viewBox="0 0 1200 730" role="img" aria-labelledby="title desc">
<title id="title">Spatial challenger: prediction error across frozen evaluations</title>
<desc id="desc">Percentage error reduction relative to the proof-aware context baseline. Positive is better. Black is later submitted tasks; red dashed is unseen geometry. This measures predictions, not discovery odds.</desc>
<rect width="1200" height="730" fill="white"/>
<g font-family="Arial,Helvetica,sans-serif" fill="#111">
<text x="38" y="45" font-size="27">Is the challenger learning?</text>
<text x="38" y="76" font-size="16">169 frozen evaluations · 663,552 training-boundary tasks · SHADOW: no production influence</text>
<path d="M38 105h30" stroke="#111" stroke-width="3"/><text x="78" y="111" font-size="15">Later submitted tasks</text>
<path d="M320 105h30" stroke="#b5222c" stroke-width="3" stroke-dasharray="6 4"/><text x="360" y="111" font-size="15">Unseen geometry</text>
<text x="65" y="145" font-size="19">Server CPU cost</text>
<path d="M65 310.00h505" stroke="#ddd"/><text x="56" y="315.00" text-anchor="end" font-size="12">-23.8%</text>
<path d="M65 220.53h505" stroke="#ddd"/><text x="56" y="225.53" text-anchor="end" font-size="12">0.0%</text>
<path d="M65 165.00h505" stroke="#ddd"/><text x="56" y="170.00" text-anchor="end" font-size="12">14.8%</text>
<circle cx="65.00" cy="229.65" r="3" fill="#111"/>
<circle cx="68.01" cy="229.46" r="3" fill="#111"/>
<circle cx="71.01" cy="229.77" r="3" fill="#111"/>
<circle cx="74.02" cy="228.50" r="3" fill="#111"/>
<circle cx="77.02" cy="233.61" r="3" fill="#111"/>
<circle cx="80.03" cy="229.17" r="3" fill="#111"/>
<circle cx="83.04" cy="231.58" r="3" fill="#111"/>
<circle cx="86.04" cy="230.83" r="3" fill="#111"/>
<circle cx="89.05" cy="233.02" r="3" fill="#111"/>
<circle cx="92.05" cy="237.71" r="3" fill="#111"/>
<circle cx="95.06" cy="235.34" r="3" fill="#111"/>
<circle cx="98.07" cy="240.04" r="3" fill="#111"/>
<circle cx="101.07" cy="236.43" r="3" fill="#111"/>
<circle cx="104.08" cy="235.96" r="3" fill="#111"/>
<circle cx="107.08" cy="242.81" r="3" fill="#111"/>
<circle cx="110.09" cy="252.60" r="3" fill="#111"/>
<circle cx="113.10" cy="244.77" r="3" fill="#111"/>
<circle cx="116.10" cy="248.61" r="3" fill="#111"/>
<circle cx="119.11" cy="261.58" r="3" fill="#111"/>
<circle cx="122.11" cy="288.81" r="3" fill="#111"/>
<circle cx="125.12" cy="259.44" r="3" fill="#111"/>
<circle cx="128.12" cy="279.21" r="3" fill="#111"/>
<circle cx="131.13" cy="253.75" r="3" fill="#111"/>
<circle cx="134.14" cy="246.28" r="3" fill="#111"/>
<circle cx="137.14" cy="214.38" r="3" fill="#111"/>
<circle cx="140.15" cy="237.05" r="3" fill="#111"/>
<circle cx="143.15" cy="233.71" r="3" fill="#111"/>
<circle cx="146.16" cy="219.39" r="3" fill="#111"/>
<circle cx="149.17" cy="237.79" r="3" fill="#111"/>
<circle cx="152.17" cy="238.06" r="3" fill="#111"/>
<circle cx="155.18" cy="235.94" r="3" fill="#111"/>
<circle cx="158.18" cy="243.23" r="3" fill="#111"/>
<circle cx="161.19" cy="234.30" r="3" fill="#111"/>
<circle cx="164.20" cy="234.65" r="3" fill="#111"/>
<circle cx="167.20" cy="277.73" r="3" fill="#111"/>
<circle cx="170.21" cy="225.93" r="3" fill="#111"/>
<circle cx="173.21" cy="229.46" r="3" fill="#111"/>
<circle cx="176.22" cy="208.70" r="3" fill="#111"/>
<circle cx="179.23" cy="206.43" r="3" fill="#111"/>
<circle cx="182.23" cy="200.01" r="3" fill="#111"/>
<circle cx="185.24" cy="187.98" r="3" fill="#111"/>
<circle cx="188.24" cy="191.98" r="3" fill="#111"/>
<circle cx="191.25" cy="213.08" r="3" fill="#111"/>
<circle cx="194.26" cy="267.37" r="3" fill="#111"/>
<circle cx="197.26" cy="218.96" r="3" fill="#111"/>
<circle cx="200.27" cy="247.05" r="3" fill="#111"/>
<circle cx="203.27" cy="248.77" r="3" fill="#111"/>
<circle cx="206.28" cy="239.31" r="3" fill="#111"/>
<circle cx="209.29" cy="260.98" r="3" fill="#111"/>
<circle cx="212.29" cy="275.70" r="3" fill="#111"/>
<circle cx="215.30" cy="233.60" r="3" fill="#111"/>
<circle cx="218.30" cy="275.48" r="3" fill="#111"/>
<circle cx="221.31" cy="273.49" r="3" fill="#111"/>
<circle cx="224.32" cy="234.04" r="3" fill="#111"/>
<circle cx="227.32" cy="212.50" r="3" fill="#111"/>
<circle cx="230.33" cy="216.82" r="3" fill="#111"/>
<circle cx="233.33" cy="223.51" r="3" fill="#111"/>
<circle cx="236.34" cy="208.94" r="3" fill="#111"/>
<circle cx="239.35" cy="211.29" r="3" fill="#111"/>
<circle cx="242.35" cy="202.89" r="3" fill="#111"/>
<circle cx="245.36" cy="274.24" r="3" fill="#111"/>
<circle cx="248.36" cy="267.24" r="3" fill="#111"/>
<circle cx="251.37" cy="222.44" r="3" fill="#111"/>
<circle cx="254.38" cy="208.89" r="3" fill="#111"/>
<circle cx="257.38" cy="201.71" r="3" fill="#111"/>
<circle cx="260.39" cy="228.24" r="3" fill="#111"/>
<circle cx="263.39" cy="251.56" r="3" fill="#111"/>
<circle cx="266.40" cy="252.36" r="3" fill="#111"/>
<circle cx="269.40" cy="246.45" r="3" fill="#111"/>
<circle cx="272.41" cy="245.30" r="3" fill="#111"/>
<circle cx="275.42" cy="255.19" r="3" fill="#111"/>
<circle cx="278.42" cy="247.77" r="3" fill="#111"/>
<circle cx="281.43" cy="239.61" r="3" fill="#111"/>
<circle cx="284.43" cy="231.32" r="3" fill="#111"/>
<circle cx="287.44" cy="256.80" r="3" fill="#111"/>
<circle cx="290.45" cy="242.17" r="3" fill="#111"/>
<circle cx="293.45" cy="270.48" r="3" fill="#111"/>
<circle cx="296.46" cy="254.79" r="3" fill="#111"/>
<circle cx="299.46" cy="225.03" r="3" fill="#111"/>
<circle cx="302.47" cy="210.44" r="3" fill="#111"/>
<circle cx="305.48" cy="204.23" r="3" fill="#111"/>
<circle cx="308.48" cy="239.43" r="3" fill="#111"/>
<circle cx="311.49" cy="268.87" r="3" fill="#111"/>
<circle cx="314.49" cy="237.73" r="3" fill="#111"/>
<circle cx="317.50" cy="244.95" r="3" fill="#111"/>
<circle cx="320.51" cy="259.28" r="3" fill="#111"/>
<circle cx="323.51" cy="237.05" r="3" fill="#111"/>
<circle cx="326.52" cy="234.91" r="3" fill="#111"/>
<circle cx="329.52" cy="214.12" r="3" fill="#111"/>
<circle cx="332.53" cy="188.17" r="3" fill="#111"/>
<circle cx="335.54" cy="190.20" r="3" fill="#111"/>
<circle cx="338.54" cy="204.48" r="3" fill="#111"/>
<circle cx="341.55" cy="221.64" r="3" fill="#111"/>
<circle cx="344.55" cy="203.41" r="3" fill="#111"/>
<circle cx="347.56" cy="193.13" r="3" fill="#111"/>
<circle cx="350.57" cy="193.25" r="3" fill="#111"/>
<circle cx="353.57" cy="215.10" r="3" fill="#111"/>
<circle cx="356.58" cy="210.80" r="3" fill="#111"/>
<circle cx="359.58" cy="196.18" r="3" fill="#111"/>
<circle cx="362.59" cy="181.73" r="3" fill="#111"/>
<circle cx="365.60" cy="192.77" r="3" fill="#111"/>
<circle cx="368.60" cy="193.43" r="3" fill="#111"/>
<circle cx="371.61" cy="192.53" r="3" fill="#111"/>
<circle cx="374.61" cy="193.12" r="3" fill="#111"/>
<circle cx="377.62" cy="203.00" r="3" fill="#111"/>
<circle cx="380.62" cy="209.45" r="3" fill="#111"/>
<circle cx="383.63" cy="212.10" r="3" fill="#111"/>
<circle cx="386.64" cy="209.01" r="3" fill="#111"/>
<circle cx="389.64" cy="215.52" r="3" fill="#111"/>
<circle cx="392.65" cy="212.44" r="3" fill="#111"/>
<circle cx="395.65" cy="204.93" r="3" fill="#111"/>
<circle cx="398.66" cy="279.60" r="3" fill="#111"/>
<circle cx="401.67" cy="234.81" r="3" fill="#111"/>
<circle cx="404.67" cy="218.78" r="3" fill="#111"/>
<circle cx="407.68" cy="212.28" r="3" fill="#111"/>
<circle cx="410.68" cy="218.31" r="3" fill="#111"/>
<circle cx="413.69" cy="213.14" r="3" fill="#111"/>
<circle cx="416.70" cy="203.63" r="3" fill="#111"/>
<circle cx="419.70" cy="193.76" r="3" fill="#111"/>
<circle cx="422.71" cy="199.61" r="3" fill="#111"/>
<circle cx="425.71" cy="202.05" r="3" fill="#111"/>
<circle cx="428.72" cy="211.32" r="3" fill="#111"/>
<circle cx="431.73" cy="217.48" r="3" fill="#111"/>
<circle cx="434.73" cy="207.82" r="3" fill="#111"/>
<circle cx="437.74" cy="189.91" r="3" fill="#111"/>
<circle cx="440.74" cy="196.82" r="3" fill="#111"/>
<circle cx="443.75" cy="193.30" r="3" fill="#111"/>
<circle cx="446.76" cy="210.93" r="3" fill="#111"/>
<circle cx="449.76" cy="193.20" r="3" fill="#111"/>
<circle cx="452.77" cy="185.39" r="3" fill="#111"/>
<circle cx="455.77" cy="190.56" r="3" fill="#111"/>
<circle cx="458.78" cy="226.99" r="3" fill="#111"/>
<circle cx="461.79" cy="241.72" r="3" fill="#111"/>
<circle cx="464.79" cy="215.53" r="3" fill="#111"/>
<circle cx="467.80" cy="192.45" r="3" fill="#111"/>
<circle cx="470.80" cy="207.19" r="3" fill="#111"/>
<circle cx="473.81" cy="202.99" r="3" fill="#111"/>
<circle cx="476.82" cy="217.13" r="3" fill="#111"/>
<circle cx="479.82" cy="204.05" r="3" fill="#111"/>
<circle cx="482.83" cy="215.63" r="3" fill="#111"/>
<circle cx="485.83" cy="215.80" r="3" fill="#111"/>
<circle cx="488.84" cy="217.53" r="3" fill="#111"/>
<circle cx="491.85" cy="219.55" r="3" fill="#111"/>
<circle cx="494.85" cy="207.19" r="3" fill="#111"/>
<circle cx="497.86" cy="218.77" r="3" fill="#111"/>
<circle cx="500.86" cy="219.79" r="3" fill="#111"/>
<circle cx="503.87" cy="221.20" r="3" fill="#111"/>
<circle cx="506.88" cy="219.94" r="3" fill="#111"/>
<circle cx="509.88" cy="221.70" r="3" fill="#111"/>
<circle cx="512.89" cy="237.78" r="3" fill="#111"/>
<circle cx="515.89" cy="243.09" r="3" fill="#111"/>
<circle cx="518.90" cy="232.21" r="3" fill="#111"/>
<circle cx="521.90" cy="233.39" r="3" fill="#111"/>
<circle cx="524.91" cy="230.87" r="3" fill="#111"/>
<circle cx="527.92" cy="233.56" r="3" fill="#111"/>
<circle cx="530.92" cy="237.65" r="3" fill="#111"/>
<circle cx="533.93" cy="242.54" r="3" fill="#111"/>
<circle cx="536.93" cy="233.74" r="3" fill="#111"/>
<circle cx="539.94" cy="230.22" r="3" fill="#111"/>
<circle cx="542.95" cy="230.39" r="3" fill="#111"/>
<circle cx="545.95" cy="234.47" r="3" fill="#111"/>
<circle cx="548.96" cy="229.26" r="3" fill="#111"/>
<circle cx="551.96" cy="227.27" r="3" fill="#111"/>
<circle cx="554.97" cy="226.64" r="3" fill="#111"/>
<circle cx="557.98" cy="227.91" r="3" fill="#111"/>
<circle cx="560.98" cy="221.74" r="3" fill="#111"/>
<circle cx="563.99" cy="223.66" r="3" fill="#111"/>
<circle cx="566.99" cy="226.88" r="3" fill="#111"/>
<circle cx="570.00" cy="224.10" r="3" fill="#111"/>
<path d="M65.00,229.65 L68.01,229.46 L71.01,229.77 L74.02,228.50 L77.02,233.61 L80.03,229.17 L83.04,231.58 L86.04,230.83 L89.05,233.02 L92.05,237.71 L95.06,235.34 L98.07,240.04 L101.07,236.43 L104.08,235.96 L107.08,242.81 L110.09,252.60 L113.10,244.77 L116.10,248.61 L119.11,261.58 L122.11,288.81 L125.12,259.44 L128.12,279.21 L131.13,253.75 L134.14,246.28 L137.14,214.38 L140.15,237.05 L143.15,233.71 L146.16,219.39 L149.17,237.79 L152.17,238.06 L155.18,235.94 L158.18,243.23 L161.19,234.30 L164.20,234.65 L167.20,277.73 L170.21,225.93 L173.21,229.46 L176.22,208.70 L179.23,206.43 L182.23,200.01 L185.24,187.98 L188.24,191.98 L191.25,213.08 L194.26,267.37 L197.26,218.96 L200.27,247.05 L203.27,248.77 L206.28,239.31 L209.29,260.98 L212.29,275.70 L215.30,233.60 L218.30,275.48 L221.31,273.49 L224.32,234.04 L227.32,212.50 L230.33,216.82 L233.33,223.51 L236.34,208.94 L239.35,211.29 L242.35,202.89 L245.36,274.24 L248.36,267.24 L251.37,222.44 L254.38,208.89 L257.38,201.71 L260.39,228.24 L263.39,251.56 L266.40,252.36 L269.40,246.45 L272.41,245.30 L275.42,255.19 L278.42,247.77 L281.43,239.61 L284.43,231.32 L287.44,256.80 L290.45,242.17 L293.45,270.48 L296.46,254.79 L299.46,225.03 L302.47,210.44 L305.48,204.23 L308.48,239.43 L311.49,268.87 L314.49,237.73 L317.50,244.95 L320.51,259.28 L323.51,237.05 L326.52,234.91 L329.52,214.12 L332.53,188.17 L335.54,190.20 L338.54,204.48 L341.55,221.64 L344.55,203.41 L347.56,193.13 L350.57,193.25 L353.57,215.10 L356.58,210.80 L359.58,196.18 L362.59,181.73 L365.60,192.77 L368.60,193.43 L371.61,192.53 L374.61,193.12 L377.62,203.00 L380.62,209.45 L383.63,212.10 L386.64,209.01 L389.64,215.52 L392.65,212.44 L395.65,204.93 L398.66,279.60 L401.67,234.81 L404.67,218.78 L407.68,212.28 L410.68,218.31 L413.69,213.14 L416.70,203.63 L419.70,193.76 L422.71,199.61 L425.71,202.05 L428.72,211.32 L431.73,217.48 L434.73,207.82 L437.74,189.91 L440.74,196.82 L443.75,193.30 L446.76,210.93 L449.76,193.20 L452.77,185.39 L455.77,190.56 L458.78,226.99 L461.79,241.72 L464.79,215.53 L467.80,192.45 L470.80,207.19 L473.81,202.99 L476.82,217.13 L479.82,204.05 L482.83,215.63 L485.83,215.80 L488.84,217.53 L491.85,219.55 L494.85,207.19 L497.86,218.77 L500.86,219.79 L503.87,221.20 L506.88,219.94 L509.88,221.70 L512.89,237.78 L515.89,243.09 L518.90,232.21 L521.90,233.39 L524.91,230.87 L527.92,233.56 L530.92,237.65 L533.93,242.54 L536.93,233.74 L539.94,230.22 L542.95,230.39 L545.95,234.47 L548.96,229.26 L551.96,227.27 L554.97,226.64 L557.98,227.91 L560.98,221.74 L563.99,223.66 L566.99,226.88 L570.00,224.10" fill="none" stroke="#111" stroke-width="2.5" stroke-dasharray=""/>
<circle cx="65.00" cy="203.68" r="3" fill="#b5222c"/>
<circle cx="68.01" cy="205.88" r="3" fill="#b5222c"/>
<circle cx="71.01" cy="214.48" r="3" fill="#b5222c"/>
<circle cx="74.02" cy="204.17" r="3" fill="#b5222c"/>
<circle cx="77.02" cy="214.35" r="3" fill="#b5222c"/>
<circle cx="80.03" cy="209.92" r="3" fill="#b5222c"/>
<circle cx="83.04" cy="214.46" r="3" fill="#b5222c"/>
<circle cx="86.04" cy="207.92" r="3" fill="#b5222c"/>
<circle cx="89.05" cy="208.43" r="3" fill="#b5222c"/>
<circle cx="92.05" cy="202.18" r="3" fill="#b5222c"/>
<circle cx="95.06" cy="203.27" r="3" fill="#b5222c"/>
<circle cx="98.07" cy="210.70" r="3" fill="#b5222c"/>
<circle cx="101.07" cy="196.97" r="3" fill="#b5222c"/>
<circle cx="104.08" cy="218.51" r="3" fill="#b5222c"/>
<circle cx="107.08" cy="204.01" r="3" fill="#b5222c"/>
<circle cx="110.09" cy="227.86" r="3" fill="#b5222c"/>
<circle cx="113.10" cy="244.85" r="3" fill="#b5222c"/>
<circle cx="116.10" cy="212.08" r="3" fill="#b5222c"/>
<circle cx="119.11" cy="234.84" r="3" fill="#b5222c"/>
<circle cx="122.11" cy="291.43" r="3" fill="#b5222c"/>
<circle cx="125.12" cy="259.05" r="3" fill="#b5222c"/>
<circle cx="128.12" cy="264.09" r="3" fill="#b5222c"/>
<circle cx="131.13" cy="235.85" r="3" fill="#b5222c"/>
<circle cx="134.14" cy="236.64" r="3" fill="#b5222c"/>
<circle cx="137.14" cy="232.27" r="3" fill="#b5222c"/>
<circle cx="140.15" cy="230.59" r="3" fill="#b5222c"/>
<circle cx="143.15" cy="235.50" r="3" fill="#b5222c"/>
<circle cx="146.16" cy="222.92" r="3" fill="#b5222c"/>
<circle cx="149.17" cy="226.31" r="3" fill="#b5222c"/>
<circle cx="152.17" cy="243.45" r="3" fill="#b5222c"/>
<circle cx="155.18" cy="217.88" r="3" fill="#b5222c"/>
<circle cx="158.18" cy="215.87" r="3" fill="#b5222c"/>
<circle cx="161.19" cy="212.07" r="3" fill="#b5222c"/>
<circle cx="164.20" cy="211.85" r="3" fill="#b5222c"/>
<circle cx="167.20" cy="243.77" r="3" fill="#b5222c"/>
<circle cx="170.21" cy="211.77" r="3" fill="#b5222c"/>
<circle cx="173.21" cy="224.20" r="3" fill="#b5222c"/>
<circle cx="176.22" cy="216.08" r="3" fill="#b5222c"/>
<circle cx="179.23" cy="222.27" r="3" fill="#b5222c"/>
<circle cx="182.23" cy="222.71" r="3" fill="#b5222c"/>
<circle cx="185.24" cy="201.49" r="3" fill="#b5222c"/>
<circle cx="188.24" cy="210.98" r="3" fill="#b5222c"/>
<circle cx="191.25" cy="220.97" r="3" fill="#b5222c"/>
<circle cx="194.26" cy="293.27" r="3" fill="#b5222c"/>
<circle cx="197.26" cy="222.50" r="3" fill="#b5222c"/>
<circle cx="200.27" cy="259.29" r="3" fill="#b5222c"/>
<circle cx="203.27" cy="244.06" r="3" fill="#b5222c"/>
<circle cx="206.28" cy="226.28" r="3" fill="#b5222c"/>
<circle cx="209.29" cy="229.15" r="3" fill="#b5222c"/>
<circle cx="212.29" cy="262.54" r="3" fill="#b5222c"/>
<circle cx="215.30" cy="202.02" r="3" fill="#b5222c"/>
<circle cx="218.30" cy="244.28" r="3" fill="#b5222c"/>
<circle cx="221.31" cy="251.15" r="3" fill="#b5222c"/>
<circle cx="224.32" cy="236.18" r="3" fill="#b5222c"/>
<circle cx="227.32" cy="233.52" r="3" fill="#b5222c"/>
<circle cx="230.33" cy="227.46" r="3" fill="#b5222c"/>
<circle cx="233.33" cy="230.07" r="3" fill="#b5222c"/>
<circle cx="236.34" cy="226.40" r="3" fill="#b5222c"/>
<circle cx="239.35" cy="238.99" r="3" fill="#b5222c"/>
<circle cx="242.35" cy="234.05" r="3" fill="#b5222c"/>
<circle cx="245.36" cy="225.24" r="3" fill="#b5222c"/>
<circle cx="248.36" cy="229.46" r="3" fill="#b5222c"/>
<circle cx="251.37" cy="212.10" r="3" fill="#b5222c"/>
<circle cx="254.38" cy="230.41" r="3" fill="#b5222c"/>
<circle cx="257.38" cy="222.14" r="3" fill="#b5222c"/>
<circle cx="260.39" cy="236.75" r="3" fill="#b5222c"/>
<circle cx="263.39" cy="217.11" r="3" fill="#b5222c"/>
<circle cx="266.40" cy="218.34" r="3" fill="#b5222c"/>
<circle cx="269.40" cy="221.89" r="3" fill="#b5222c"/>
<circle cx="272.41" cy="242.46" r="3" fill="#b5222c"/>
<circle cx="275.42" cy="210.82" r="3" fill="#b5222c"/>
<circle cx="278.42" cy="206.19" r="3" fill="#b5222c"/>
<circle cx="281.43" cy="196.43" r="3" fill="#b5222c"/>
<circle cx="284.43" cy="201.49" r="3" fill="#b5222c"/>
<circle cx="287.44" cy="218.85" r="3" fill="#b5222c"/>
<circle cx="290.45" cy="216.35" r="3" fill="#b5222c"/>
<circle cx="293.45" cy="280.30" r="3" fill="#b5222c"/>
<circle cx="296.46" cy="225.36" r="3" fill="#b5222c"/>
<circle cx="299.46" cy="219.36" r="3" fill="#b5222c"/>
<circle cx="302.47" cy="232.44" r="3" fill="#b5222c"/>
<circle cx="305.48" cy="220.86" r="3" fill="#b5222c"/>
<circle cx="308.48" cy="234.15" r="3" fill="#b5222c"/>
<circle cx="311.49" cy="249.45" r="3" fill="#b5222c"/>
<circle cx="314.49" cy="210.93" r="3" fill="#b5222c"/>
<circle cx="317.50" cy="211.31" r="3" fill="#b5222c"/>
<circle cx="320.51" cy="253.49" r="3" fill="#b5222c"/>
<circle cx="323.51" cy="190.71" r="3" fill="#b5222c"/>
<circle cx="326.52" cy="217.15" r="3" fill="#b5222c"/>
<circle cx="329.52" cy="213.39" r="3" fill="#b5222c"/>
<circle cx="332.53" cy="212.73" r="3" fill="#b5222c"/>
<circle cx="335.54" cy="197.84" r="3" fill="#b5222c"/>
<circle cx="338.54" cy="202.93" r="3" fill="#b5222c"/>
<circle cx="341.55" cy="203.83" r="3" fill="#b5222c"/>
<circle cx="344.55" cy="209.81" r="3" fill="#b5222c"/>
<circle cx="347.56" cy="212.90" r="3" fill="#b5222c"/>
<circle cx="350.57" cy="202.22" r="3" fill="#b5222c"/>
<circle cx="353.57" cy="237.01" r="3" fill="#b5222c"/>
<circle cx="356.58" cy="225.86" r="3" fill="#b5222c"/>
<circle cx="359.58" cy="206.64" r="3" fill="#b5222c"/>
<circle cx="362.59" cy="203.68" r="3" fill="#b5222c"/>
<circle cx="365.60" cy="204.90" r="3" fill="#b5222c"/>
<circle cx="368.60" cy="199.88" r="3" fill="#b5222c"/>
<circle cx="371.61" cy="201.77" r="3" fill="#b5222c"/>
<circle cx="374.61" cy="214.80" r="3" fill="#b5222c"/>
<circle cx="377.62" cy="217.79" r="3" fill="#b5222c"/>
<circle cx="380.62" cy="216.29" r="3" fill="#b5222c"/>
<circle cx="383.63" cy="220.97" r="3" fill="#b5222c"/>
<circle cx="386.64" cy="219.59" r="3" fill="#b5222c"/>
<circle cx="389.64" cy="221.83" r="3" fill="#b5222c"/>
<circle cx="392.65" cy="226.74" r="3" fill="#b5222c"/>
<circle cx="395.65" cy="226.50" r="3" fill="#b5222c"/>
<circle cx="398.66" cy="287.17" r="3" fill="#b5222c"/>
<circle cx="401.67" cy="242.47" r="3" fill="#b5222c"/>
<circle cx="404.67" cy="232.80" r="3" fill="#b5222c"/>
<circle cx="407.68" cy="220.48" r="3" fill="#b5222c"/>
<circle cx="410.68" cy="234.56" r="3" fill="#b5222c"/>
<circle cx="413.69" cy="229.88" r="3" fill="#b5222c"/>
<circle cx="416.70" cy="217.20" r="3" fill="#b5222c"/>
<circle cx="419.70" cy="209.01" r="3" fill="#b5222c"/>
<circle cx="422.71" cy="202.22" r="3" fill="#b5222c"/>
<circle cx="425.71" cy="206.66" r="3" fill="#b5222c"/>
<circle cx="428.72" cy="228.02" r="3" fill="#b5222c"/>
<circle cx="431.73" cy="224.35" r="3" fill="#b5222c"/>
<circle cx="434.73" cy="220.55" r="3" fill="#b5222c"/>
<circle cx="437.74" cy="202.94" r="3" fill="#b5222c"/>
<circle cx="440.74" cy="200.41" r="3" fill="#b5222c"/>
<circle cx="443.75" cy="206.54" r="3" fill="#b5222c"/>
<circle cx="446.76" cy="221.50" r="3" fill="#b5222c"/>
<circle cx="449.76" cy="200.26" r="3" fill="#b5222c"/>
<circle cx="452.77" cy="202.65" r="3" fill="#b5222c"/>
<circle cx="455.77" cy="203.42" r="3" fill="#b5222c"/>
<circle cx="458.78" cy="212.65" r="3" fill="#b5222c"/>
<circle cx="461.79" cy="207.49" r="3" fill="#b5222c"/>
<circle cx="464.79" cy="207.60" r="3" fill="#b5222c"/>
<circle cx="467.80" cy="208.26" r="3" fill="#b5222c"/>
<circle cx="470.80" cy="210.95" r="3" fill="#b5222c"/>
<circle cx="473.81" cy="189.57" r="3" fill="#b5222c"/>
<circle cx="476.82" cy="195.44" r="3" fill="#b5222c"/>
<circle cx="479.82" cy="202.45" r="3" fill="#b5222c"/>
<circle cx="482.83" cy="211.33" r="3" fill="#b5222c"/>
<circle cx="485.83" cy="212.22" r="3" fill="#b5222c"/>
<circle cx="488.84" cy="212.35" r="3" fill="#b5222c"/>
<circle cx="491.85" cy="220.79" r="3" fill="#b5222c"/>
<circle cx="494.85" cy="202.77" r="3" fill="#b5222c"/>
<circle cx="497.86" cy="221.43" r="3" fill="#b5222c"/>
<circle cx="500.86" cy="223.95" r="3" fill="#b5222c"/>
<circle cx="503.87" cy="222.57" r="3" fill="#b5222c"/>
<circle cx="506.88" cy="205.62" r="3" fill="#b5222c"/>
<circle cx="509.88" cy="218.29" r="3" fill="#b5222c"/>
<circle cx="512.89" cy="235.29" r="3" fill="#b5222c"/>
<circle cx="515.89" cy="236.10" r="3" fill="#b5222c"/>
<circle cx="518.90" cy="216.43" r="3" fill="#b5222c"/>
<circle cx="521.90" cy="213.79" r="3" fill="#b5222c"/>
<circle cx="524.91" cy="209.83" r="3" fill="#b5222c"/>
<circle cx="527.92" cy="211.88" r="3" fill="#b5222c"/>
<circle cx="530.92" cy="232.94" r="3" fill="#b5222c"/>
<circle cx="533.93" cy="242.83" r="3" fill="#b5222c"/>
<circle cx="536.93" cy="231.19" r="3" fill="#b5222c"/>
<circle cx="539.94" cy="219.02" r="3" fill="#b5222c"/>
<circle cx="542.95" cy="225.89" r="3" fill="#b5222c"/>
<circle cx="545.95" cy="235.71" r="3" fill="#b5222c"/>
<circle cx="548.96" cy="222.76" r="3" fill="#b5222c"/>
<circle cx="551.96" cy="234.99" r="3" fill="#b5222c"/>
<circle cx="554.97" cy="221.32" r="3" fill="#b5222c"/>
<circle cx="557.98" cy="229.82" r="3" fill="#b5222c"/>
<circle cx="560.98" cy="225.29" r="3" fill="#b5222c"/>
<circle cx="563.99" cy="227.77" r="3" fill="#b5222c"/>
<circle cx="566.99" cy="223.09" r="3" fill="#b5222c"/>
<circle cx="570.00" cy="222.40" r="3" fill="#b5222c"/>
<path d="M65.00,203.68 L68.01,205.88 L71.01,214.48 L74.02,204.17 L77.02,214.35 L80.03,209.92 L83.04,214.46 L86.04,207.92 L89.05,208.43 L92.05,202.18 L95.06,203.27 L98.07,210.70 L101.07,196.97 L104.08,218.51 L107.08,204.01 L110.09,227.86 L113.10,244.85 L116.10,212.08 L119.11,234.84 L122.11,291.43 L125.12,259.05 L128.12,264.09 L131.13,235.85 L134.14,236.64 L137.14,232.27 L140.15,230.59 L143.15,235.50 L146.16,222.92 L149.17,226.31 L152.17,243.45 L155.18,217.88 L158.18,215.87 L161.19,212.07 L164.20,211.85 L167.20,243.77 L170.21,211.77 L173.21,224.20 L176.22,216.08 L179.23,222.27 L182.23,222.71 L185.24,201.49 L188.24,210.98 L191.25,220.97 L194.26,293.27 L197.26,222.50 L200.27,259.29 L203.27,244.06 L206.28,226.28 L209.29,229.15 L212.29,262.54 L215.30,202.02 L218.30,244.28 L221.31,251.15 L224.32,236.18 L227.32,233.52 L230.33,227.46 L233.33,230.07 L236.34,226.40 L239.35,238.99 L242.35,234.05 L245.36,225.24 L248.36,229.46 L251.37,212.10 L254.38,230.41 L257.38,222.14 L260.39,236.75 L263.39,217.11 L266.40,218.34 L269.40,221.89 L272.41,242.46 L275.42,210.82 L278.42,206.19 L281.43,196.43 L284.43,201.49 L287.44,218.85 L290.45,216.35 L293.45,280.30 L296.46,225.36 L299.46,219.36 L302.47,232.44 L305.48,220.86 L308.48,234.15 L311.49,249.45 L314.49,210.93 L317.50,211.31 L320.51,253.49 L323.51,190.71 L326.52,217.15 L329.52,213.39 L332.53,212.73 L335.54,197.84 L338.54,202.93 L341.55,203.83 L344.55,209.81 L347.56,212.90 L350.57,202.22 L353.57,237.01 L356.58,225.86 L359.58,206.64 L362.59,203.68 L365.60,204.90 L368.60,199.88 L371.61,201.77 L374.61,214.80 L377.62,217.79 L380.62,216.29 L383.63,220.97 L386.64,219.59 L389.64,221.83 L392.65,226.74 L395.65,226.50 L398.66,287.17 L401.67,242.47 L404.67,232.80 L407.68,220.48 L410.68,234.56 L413.69,229.88 L416.70,217.20 L419.70,209.01 L422.71,202.22 L425.71,206.66 L428.72,228.02 L431.73,224.35 L434.73,220.55 L437.74,202.94 L440.74,200.41 L443.75,206.54 L446.76,221.50 L449.76,200.26 L452.77,202.65 L455.77,203.42 L458.78,212.65 L461.79,207.49 L464.79,207.60 L467.80,208.26 L470.80,210.95 L473.81,189.57 L476.82,195.44 L479.82,202.45 L482.83,211.33 L485.83,212.22 L488.84,212.35 L491.85,220.79 L494.85,202.77 L497.86,221.43 L500.86,223.95 L503.87,222.57 L506.88,205.62 L509.88,218.29 L512.89,235.29 L515.89,236.10 L518.90,216.43 L521.90,213.79 L524.91,209.83 L527.92,211.88 L530.92,232.94 L533.93,242.83 L536.93,231.19 L539.94,219.02 L542.95,225.89 L545.95,235.71 L548.96,222.76 L551.96,234.99 L554.97,221.32 L557.98,229.82 L560.98,225.29 L563.99,227.77 L566.99,223.09 L570.00,222.40" fill="none" stroke="#b5222c" stroke-width="2.5" stroke-dasharray="6 4"/>
<text x="65.00" y="333" text-anchor="middle" font-size="12">491,520</text>
<text x="570.00" y="333" text-anchor="middle" font-size="12">663,552</text>
<text x="317.5" y="353" text-anchor="middle" font-size="12">Verified tasks at evaluation end</text>
<text x="655" y="145" font-size="19">Quotient positions</text>
<path d="M655 310.00h505" stroke="#ddd"/><text x="646" y="315.00" text-anchor="end" font-size="12">-6.1%</text>
<path d="M655 286.08h505" stroke="#ddd"/><text x="646" y="291.08" text-anchor="end" font-size="12">0.0%</text>
<path d="M655 165.00h505" stroke="#ddd"/><text x="646" y="170.00" text-anchor="end" font-size="12">31.0%</text>
<circle cx="655.00" cy="232.74" r="3" fill="#111"/>
<circle cx="658.01" cy="230.50" r="3" fill="#111"/>
<circle cx="661.01" cy="238.98" r="3" fill="#111"/>
<circle cx="664.02" cy="234.86" r="3" fill="#111"/>
<circle cx="667.02" cy="228.23" r="3" fill="#111"/>
<circle cx="670.03" cy="241.75" r="3" fill="#111"/>
<circle cx="673.04" cy="242.89" r="3" fill="#111"/>
<circle cx="676.04" cy="234.06" r="3" fill="#111"/>
<circle cx="679.05" cy="231.11" r="3" fill="#111"/>
<circle cx="682.05" cy="228.25" r="3" fill="#111"/>
<circle cx="685.06" cy="238.70" r="3" fill="#111"/>
<circle cx="688.07" cy="232.94" r="3" fill="#111"/>
<circle cx="691.07" cy="238.69" r="3" fill="#111"/>
<circle cx="694.08" cy="240.16" r="3" fill="#111"/>
<circle cx="697.08" cy="229.80" r="3" fill="#111"/>
<circle cx="700.09" cy="229.03" r="3" fill="#111"/>
<circle cx="703.10" cy="225.48" r="3" fill="#111"/>
<circle cx="706.10" cy="241.17" r="3" fill="#111"/>
<circle cx="709.11" cy="221.60" r="3" fill="#111"/>
<circle cx="712.11" cy="221.27" r="3" fill="#111"/>
<circle cx="715.12" cy="239.02" r="3" fill="#111"/>
<circle cx="718.12" cy="231.66" r="3" fill="#111"/>
<circle cx="721.13" cy="230.85" r="3" fill="#111"/>
<circle cx="724.14" cy="218.76" r="3" fill="#111"/>
<circle cx="727.14" cy="234.28" r="3" fill="#111"/>
<circle cx="730.15" cy="215.21" r="3" fill="#111"/>
<circle cx="733.15" cy="227.49" r="3" fill="#111"/>
<circle cx="736.16" cy="228.44" r="3" fill="#111"/>
<circle cx="739.17" cy="238.42" r="3" fill="#111"/>
<circle cx="742.17" cy="217.38" r="3" fill="#111"/>
<circle cx="745.18" cy="238.09" r="3" fill="#111"/>
<circle cx="748.18" cy="243.95" r="3" fill="#111"/>
<circle cx="751.19" cy="247.97" r="3" fill="#111"/>
<circle cx="754.20" cy="239.75" r="3" fill="#111"/>
<circle cx="757.20" cy="219.51" r="3" fill="#111"/>
<circle cx="760.21" cy="241.61" r="3" fill="#111"/>
<circle cx="763.21" cy="239.82" r="3" fill="#111"/>
<circle cx="766.22" cy="240.83" r="3" fill="#111"/>
<circle cx="769.23" cy="240.84" r="3" fill="#111"/>
<circle cx="772.23" cy="234.63" r="3" fill="#111"/>
<circle cx="775.24" cy="244.15" r="3" fill="#111"/>
<circle cx="778.24" cy="238.33" r="3" fill="#111"/>
<circle cx="781.25" cy="225.83" r="3" fill="#111"/>
<circle cx="784.26" cy="214.20" r="3" fill="#111"/>
<circle cx="787.26" cy="241.49" r="3" fill="#111"/>
<circle cx="790.27" cy="219.52" r="3" fill="#111"/>
<circle cx="793.27" cy="229.04" r="3" fill="#111"/>
<circle cx="796.28" cy="235.28" r="3" fill="#111"/>
<circle cx="799.29" cy="227.47" r="3" fill="#111"/>
<circle cx="802.29" cy="218.62" r="3" fill="#111"/>
<circle cx="805.30" cy="250.42" r="3" fill="#111"/>
<circle cx="808.30" cy="231.97" r="3" fill="#111"/>
<circle cx="811.31" cy="221.89" r="3" fill="#111"/>
<circle cx="814.32" cy="226.41" r="3" fill="#111"/>
<circle cx="817.32" cy="236.20" r="3" fill="#111"/>
<circle cx="820.33" cy="231.75" r="3" fill="#111"/>
<circle cx="823.33" cy="220.55" r="3" fill="#111"/>
<circle cx="826.34" cy="232.17" r="3" fill="#111"/>
<circle cx="829.35" cy="220.27" r="3" fill="#111"/>
<circle cx="832.35" cy="249.17" r="3" fill="#111"/>
<circle cx="835.36" cy="228.39" r="3" fill="#111"/>
<circle cx="838.36" cy="238.41" r="3" fill="#111"/>
<circle cx="841.37" cy="239.90" r="3" fill="#111"/>
<circle cx="844.38" cy="219.55" r="3" fill="#111"/>
<circle cx="847.38" cy="252.68" r="3" fill="#111"/>
<circle cx="850.39" cy="246.22" r="3" fill="#111"/>
<circle cx="853.39" cy="231.35" r="3" fill="#111"/>
<circle cx="856.40" cy="254.07" r="3" fill="#111"/>
<circle cx="859.40" cy="257.76" r="3" fill="#111"/>
<circle cx="862.41" cy="239.51" r="3" fill="#111"/>
<circle cx="865.42" cy="242.95" r="3" fill="#111"/>
<circle cx="868.42" cy="230.62" r="3" fill="#111"/>
<circle cx="871.43" cy="229.67" r="3" fill="#111"/>
<circle cx="874.43" cy="233.76" r="3" fill="#111"/>
<circle cx="877.44" cy="256.89" r="3" fill="#111"/>
<circle cx="880.45" cy="235.66" r="3" fill="#111"/>
<circle cx="883.45" cy="207.78" r="3" fill="#111"/>
<circle cx="886.46" cy="238.90" r="3" fill="#111"/>
<circle cx="889.46" cy="239.24" r="3" fill="#111"/>
<circle cx="892.47" cy="209.27" r="3" fill="#111"/>
<circle cx="895.48" cy="232.96" r="3" fill="#111"/>
<circle cx="898.48" cy="224.22" r="3" fill="#111"/>
<circle cx="901.49" cy="221.04" r="3" fill="#111"/>
<circle cx="904.49" cy="254.08" r="3" fill="#111"/>
<circle cx="907.50" cy="237.58" r="3" fill="#111"/>
<circle cx="910.51" cy="204.71" r="3" fill="#111"/>
<circle cx="913.51" cy="257.76" r="3" fill="#111"/>
<circle cx="916.52" cy="248.03" r="3" fill="#111"/>
<circle cx="919.52" cy="231.82" r="3" fill="#111"/>
<circle cx="922.53" cy="235.23" r="3" fill="#111"/>
<circle cx="925.54" cy="237.10" r="3" fill="#111"/>
<circle cx="928.54" cy="252.28" r="3" fill="#111"/>
<circle cx="931.55" cy="254.12" r="3" fill="#111"/>
<circle cx="934.55" cy="234.07" r="3" fill="#111"/>
<circle cx="937.56" cy="227.28" r="3" fill="#111"/>
<circle cx="940.57" cy="229.08" r="3" fill="#111"/>
<circle cx="943.57" cy="226.66" r="3" fill="#111"/>
<circle cx="946.58" cy="229.99" r="3" fill="#111"/>
<circle cx="949.58" cy="241.95" r="3" fill="#111"/>
<circle cx="952.59" cy="235.89" r="3" fill="#111"/>
<circle cx="955.60" cy="239.66" r="3" fill="#111"/>
<circle cx="958.60" cy="255.41" r="3" fill="#111"/>
<circle cx="961.61" cy="239.45" r="3" fill="#111"/>
<circle cx="964.61" cy="235.60" r="3" fill="#111"/>
<circle cx="967.62" cy="251.69" r="3" fill="#111"/>
<circle cx="970.62" cy="245.51" r="3" fill="#111"/>
<circle cx="973.63" cy="240.28" r="3" fill="#111"/>
<circle cx="976.64" cy="231.57" r="3" fill="#111"/>
<circle cx="979.64" cy="240.14" r="3" fill="#111"/>
<circle cx="982.65" cy="238.77" r="3" fill="#111"/>
<circle cx="985.65" cy="254.89" r="3" fill="#111"/>
<circle cx="988.66" cy="181.73" r="3" fill="#111"/>
<circle cx="991.67" cy="223.01" r="3" fill="#111"/>
<circle cx="994.67" cy="239.46" r="3" fill="#111"/>
<circle cx="997.68" cy="238.15" r="3" fill="#111"/>
<circle cx="1000.68" cy="245.18" r="3" fill="#111"/>
<circle cx="1003.69" cy="238.21" r="3" fill="#111"/>
<circle cx="1006.70" cy="239.45" r="3" fill="#111"/>
<circle cx="1009.70" cy="250.89" r="3" fill="#111"/>
<circle cx="1012.71" cy="237.38" r="3" fill="#111"/>
<circle cx="1015.71" cy="231.10" r="3" fill="#111"/>
<circle cx="1018.72" cy="241.04" r="3" fill="#111"/>
<circle cx="1021.73" cy="243.76" r="3" fill="#111"/>
<circle cx="1024.73" cy="241.94" r="3" fill="#111"/>
<circle cx="1027.74" cy="249.98" r="3" fill="#111"/>
<circle cx="1030.74" cy="248.98" r="3" fill="#111"/>
<circle cx="1033.75" cy="254.70" r="3" fill="#111"/>
<circle cx="1036.76" cy="266.76" r="3" fill="#111"/>
<circle cx="1039.76" cy="251.53" r="3" fill="#111"/>
<circle cx="1042.77" cy="245.39" r="3" fill="#111"/>
<circle cx="1045.77" cy="257.38" r="3" fill="#111"/>
<circle cx="1048.78" cy="239.12" r="3" fill="#111"/>
<circle cx="1051.79" cy="241.86" r="3" fill="#111"/>
<circle cx="1054.79" cy="262.92" r="3" fill="#111"/>
<circle cx="1057.80" cy="254.76" r="3" fill="#111"/>
<circle cx="1060.80" cy="263.80" r="3" fill="#111"/>
<circle cx="1063.81" cy="249.84" r="3" fill="#111"/>
<circle cx="1066.82" cy="253.27" r="3" fill="#111"/>
<circle cx="1069.82" cy="252.55" r="3" fill="#111"/>
<circle cx="1072.83" cy="257.73" r="3" fill="#111"/>
<circle cx="1075.83" cy="265.24" r="3" fill="#111"/>
<circle cx="1078.84" cy="271.78" r="3" fill="#111"/>
<circle cx="1081.85" cy="277.67" r="3" fill="#111"/>
<circle cx="1084.85" cy="268.77" r="3" fill="#111"/>
<circle cx="1087.86" cy="278.90" r="3" fill="#111"/>
<circle cx="1090.86" cy="282.04" r="3" fill="#111"/>
<circle cx="1093.87" cy="285.55" r="3" fill="#111"/>
<circle cx="1096.88" cy="279.91" r="3" fill="#111"/>
<circle cx="1099.88" cy="278.30" r="3" fill="#111"/>
<circle cx="1102.89" cy="248.87" r="3" fill="#111"/>
<circle cx="1105.89" cy="254.62" r="3" fill="#111"/>
<circle cx="1108.90" cy="259.70" r="3" fill="#111"/>
<circle cx="1111.90" cy="268.47" r="3" fill="#111"/>
<circle cx="1114.91" cy="275.15" r="3" fill="#111"/>
<circle cx="1117.92" cy="271.70" r="3" fill="#111"/>
<circle cx="1120.92" cy="255.90" r="3" fill="#111"/>
<circle cx="1123.93" cy="255.32" r="3" fill="#111"/>
<circle cx="1126.93" cy="256.33" r="3" fill="#111"/>
<circle cx="1129.94" cy="259.63" r="3" fill="#111"/>
<circle cx="1132.95" cy="266.39" r="3" fill="#111"/>
<circle cx="1135.95" cy="268.56" r="3" fill="#111"/>
<circle cx="1138.96" cy="272.81" r="3" fill="#111"/>
<circle cx="1141.96" cy="274.50" r="3" fill="#111"/>
<circle cx="1144.97" cy="272.07" r="3" fill="#111"/>
<circle cx="1147.98" cy="272.95" r="3" fill="#111"/>
<circle cx="1150.98" cy="276.70" r="3" fill="#111"/>
<circle cx="1153.99" cy="276.44" r="3" fill="#111"/>
<circle cx="1156.99" cy="275.28" r="3" fill="#111"/>
<circle cx="1160.00" cy="272.03" r="3" fill="#111"/>
<path d="M655.00,232.74 L658.01,230.50 L661.01,238.98 L664.02,234.86 L667.02,228.23 L670.03,241.75 L673.04,242.89 L676.04,234.06 L679.05,231.11 L682.05,228.25 L685.06,238.70 L688.07,232.94 L691.07,238.69 L694.08,240.16 L697.08,229.80 L700.09,229.03 L703.10,225.48 L706.10,241.17 L709.11,221.60 L712.11,221.27 L715.12,239.02 L718.12,231.66 L721.13,230.85 L724.14,218.76 L727.14,234.28 L730.15,215.21 L733.15,227.49 L736.16,228.44 L739.17,238.42 L742.17,217.38 L745.18,238.09 L748.18,243.95 L751.19,247.97 L754.20,239.75 L757.20,219.51 L760.21,241.61 L763.21,239.82 L766.22,240.83 L769.23,240.84 L772.23,234.63 L775.24,244.15 L778.24,238.33 L781.25,225.83 L784.26,214.20 L787.26,241.49 L790.27,219.52 L793.27,229.04 L796.28,235.28 L799.29,227.47 L802.29,218.62 L805.30,250.42 L808.30,231.97 L811.31,221.89 L814.32,226.41 L817.32,236.20 L820.33,231.75 L823.33,220.55 L826.34,232.17 L829.35,220.27 L832.35,249.17 L835.36,228.39 L838.36,238.41 L841.37,239.90 L844.38,219.55 L847.38,252.68 L850.39,246.22 L853.39,231.35 L856.40,254.07 L859.40,257.76 L862.41,239.51 L865.42,242.95 L868.42,230.62 L871.43,229.67 L874.43,233.76 L877.44,256.89 L880.45,235.66 L883.45,207.78 L886.46,238.90 L889.46,239.24 L892.47,209.27 L895.48,232.96 L898.48,224.22 L901.49,221.04 L904.49,254.08 L907.50,237.58 L910.51,204.71 L913.51,257.76 L916.52,248.03 L919.52,231.82 L922.53,235.23 L925.54,237.10 L928.54,252.28 L931.55,254.12 L934.55,234.07 L937.56,227.28 L940.57,229.08 L943.57,226.66 L946.58,229.99 L949.58,241.95 L952.59,235.89 L955.60,239.66 L958.60,255.41 L961.61,239.45 L964.61,235.60 L967.62,251.69 L970.62,245.51 L973.63,240.28 L976.64,231.57 L979.64,240.14 L982.65,238.77 L985.65,254.89 L988.66,181.73 L991.67,223.01 L994.67,239.46 L997.68,238.15 L1000.68,245.18 L1003.69,238.21 L1006.70,239.45 L1009.70,250.89 L1012.71,237.38 L1015.71,231.10 L1018.72,241.04 L1021.73,243.76 L1024.73,241.94 L1027.74,249.98 L1030.74,248.98 L1033.75,254.70 L1036.76,266.76 L1039.76,251.53 L1042.77,245.39 L1045.77,257.38 L1048.78,239.12 L1051.79,241.86 L1054.79,262.92 L1057.80,254.76 L1060.80,263.80 L1063.81,249.84 L1066.82,253.27 L1069.82,252.55 L1072.83,257.73 L1075.83,265.24 L1078.84,271.78 L1081.85,277.67 L1084.85,268.77 L1087.86,278.90 L1090.86,282.04 L1093.87,285.55 L1096.88,279.91 L1099.88,278.30 L1102.89,248.87 L1105.89,254.62 L1108.90,259.70 L1111.90,268.47 L1114.91,275.15 L1117.92,271.70 L1120.92,255.90 L1123.93,255.32 L1126.93,256.33 L1129.94,259.63 L1132.95,266.39 L1135.95,268.56 L1138.96,272.81 L1141.96,274.50 L1144.97,272.07 L1147.98,272.95 L1150.98,276.70 L1153.99,276.44 L1156.99,275.28 L1160.00,272.03" fill="none" stroke="#111" stroke-width="2.5" stroke-dasharray=""/>
<circle cx="655.00" cy="247.41" r="3" fill="#b5222c"/>
<circle cx="658.01" cy="261.14" r="3" fill="#b5222c"/>
<circle cx="661.01" cy="262.78" r="3" fill="#b5222c"/>
<circle cx="664.02" cy="259.29" r="3" fill="#b5222c"/>
<circle cx="667.02" cy="244.36" r="3" fill="#b5222c"/>
<circle cx="670.03" cy="265.19" r="3" fill="#b5222c"/>
<circle cx="673.04" cy="274.98" r="3" fill="#b5222c"/>
<circle cx="676.04" cy="259.31" r="3" fill="#b5222c"/>
<circle cx="679.05" cy="249.18" r="3" fill="#b5222c"/>
<circle cx="682.05" cy="266.76" r="3" fill="#b5222c"/>
<circle cx="685.06" cy="254.72" r="3" fill="#b5222c"/>
<circle cx="688.07" cy="262.82" r="3" fill="#b5222c"/>
<circle cx="691.07" cy="258.60" r="3" fill="#b5222c"/>
<circle cx="694.08" cy="266.31" r="3" fill="#b5222c"/>
<circle cx="697.08" cy="245.88" r="3" fill="#b5222c"/>
<circle cx="700.09" cy="238.97" r="3" fill="#b5222c"/>
<circle cx="703.10" cy="253.72" r="3" fill="#b5222c"/>
<circle cx="706.10" cy="278.60" r="3" fill="#b5222c"/>
<circle cx="709.11" cy="253.51" r="3" fill="#b5222c"/>
<circle cx="712.11" cy="273.00" r="3" fill="#b5222c"/>
<circle cx="715.12" cy="266.47" r="3" fill="#b5222c"/>
<circle cx="718.12" cy="262.00" r="3" fill="#b5222c"/>
<circle cx="721.13" cy="254.02" r="3" fill="#b5222c"/>
<circle cx="724.14" cy="247.62" r="3" fill="#b5222c"/>
<circle cx="727.14" cy="260.99" r="3" fill="#b5222c"/>
<circle cx="730.15" cy="224.94" r="3" fill="#b5222c"/>
<circle cx="733.15" cy="264.48" r="3" fill="#b5222c"/>
<circle cx="736.16" cy="255.25" r="3" fill="#b5222c"/>
<circle cx="739.17" cy="261.95" r="3" fill="#b5222c"/>
<circle cx="742.17" cy="256.49" r="3" fill="#b5222c"/>
<circle cx="745.18" cy="257.94" r="3" fill="#b5222c"/>
<circle cx="748.18" cy="268.31" r="3" fill="#b5222c"/>
<circle cx="751.19" cy="264.60" r="3" fill="#b5222c"/>
<circle cx="754.20" cy="259.00" r="3" fill="#b5222c"/>
<circle cx="757.20" cy="250.83" r="3" fill="#b5222c"/>
<circle cx="760.21" cy="267.15" r="3" fill="#b5222c"/>
<circle cx="763.21" cy="262.28" r="3" fill="#b5222c"/>
<circle cx="766.22" cy="278.04" r="3" fill="#b5222c"/>
<circle cx="769.23" cy="276.70" r="3" fill="#b5222c"/>
<circle cx="772.23" cy="262.03" r="3" fill="#b5222c"/>
<circle cx="775.24" cy="269.86" r="3" fill="#b5222c"/>
<circle cx="778.24" cy="264.14" r="3" fill="#b5222c"/>
<circle cx="781.25" cy="244.54" r="3" fill="#b5222c"/>
<circle cx="784.26" cy="233.80" r="3" fill="#b5222c"/>
<circle cx="787.26" cy="263.00" r="3" fill="#b5222c"/>
<circle cx="790.27" cy="264.96" r="3" fill="#b5222c"/>
<circle cx="793.27" cy="263.22" r="3" fill="#b5222c"/>
<circle cx="796.28" cy="252.94" r="3" fill="#b5222c"/>
<circle cx="799.29" cy="273.14" r="3" fill="#b5222c"/>
<circle cx="802.29" cy="258.68" r="3" fill="#b5222c"/>
<circle cx="805.30" cy="283.68" r="3" fill="#b5222c"/>
<circle cx="808.30" cy="269.54" r="3" fill="#b5222c"/>
<circle cx="811.31" cy="249.06" r="3" fill="#b5222c"/>
<circle cx="814.32" cy="261.71" r="3" fill="#b5222c"/>
<circle cx="817.32" cy="264.77" r="3" fill="#b5222c"/>
<circle cx="820.33" cy="254.92" r="3" fill="#b5222c"/>
<circle cx="823.33" cy="247.58" r="3" fill="#b5222c"/>
<circle cx="826.34" cy="259.40" r="3" fill="#b5222c"/>
<circle cx="829.35" cy="250.17" r="3" fill="#b5222c"/>
<circle cx="832.35" cy="286.39" r="3" fill="#b5222c"/>
<circle cx="835.36" cy="253.16" r="3" fill="#b5222c"/>
<circle cx="838.36" cy="256.72" r="3" fill="#b5222c"/>
<circle cx="841.37" cy="256.89" r="3" fill="#b5222c"/>
<circle cx="844.38" cy="259.19" r="3" fill="#b5222c"/>
<circle cx="847.38" cy="266.56" r="3" fill="#b5222c"/>
<circle cx="850.39" cy="274.64" r="3" fill="#b5222c"/>
<circle cx="853.39" cy="272.66" r="3" fill="#b5222c"/>
<circle cx="856.40" cy="280.29" r="3" fill="#b5222c"/>
<circle cx="859.40" cy="275.68" r="3" fill="#b5222c"/>
<circle cx="862.41" cy="272.37" r="3" fill="#b5222c"/>
<circle cx="865.42" cy="264.17" r="3" fill="#b5222c"/>
<circle cx="868.42" cy="239.43" r="3" fill="#b5222c"/>
<circle cx="871.43" cy="254.58" r="3" fill="#b5222c"/>
<circle cx="874.43" cy="258.48" r="3" fill="#b5222c"/>
<circle cx="877.44" cy="271.04" r="3" fill="#b5222c"/>
<circle cx="880.45" cy="265.61" r="3" fill="#b5222c"/>
<circle cx="883.45" cy="270.82" r="3" fill="#b5222c"/>
<circle cx="886.46" cy="261.47" r="3" fill="#b5222c"/>
<circle cx="889.46" cy="276.57" r="3" fill="#b5222c"/>
<circle cx="892.47" cy="259.30" r="3" fill="#b5222c"/>
<circle cx="895.48" cy="262.94" r="3" fill="#b5222c"/>
<circle cx="898.48" cy="264.01" r="3" fill="#b5222c"/>
<circle cx="901.49" cy="263.23" r="3" fill="#b5222c"/>
<circle cx="904.49" cy="291.04" r="3" fill="#b5222c"/>
<circle cx="907.50" cy="258.68" r="3" fill="#b5222c"/>
<circle cx="910.51" cy="251.94" r="3" fill="#b5222c"/>
<circle cx="913.51" cy="273.41" r="3" fill="#b5222c"/>
<circle cx="916.52" cy="280.76" r="3" fill="#b5222c"/>
<circle cx="919.52" cy="263.62" r="3" fill="#b5222c"/>
<circle cx="922.53" cy="265.15" r="3" fill="#b5222c"/>
<circle cx="925.54" cy="249.30" r="3" fill="#b5222c"/>
<circle cx="928.54" cy="273.06" r="3" fill="#b5222c"/>
<circle cx="931.55" cy="264.84" r="3" fill="#b5222c"/>
<circle cx="934.55" cy="268.54" r="3" fill="#b5222c"/>
<circle cx="937.56" cy="256.84" r="3" fill="#b5222c"/>
<circle cx="940.57" cy="258.35" r="3" fill="#b5222c"/>
<circle cx="943.57" cy="238.76" r="3" fill="#b5222c"/>
<circle cx="946.58" cy="260.26" r="3" fill="#b5222c"/>
<circle cx="949.58" cy="259.28" r="3" fill="#b5222c"/>
<circle cx="952.59" cy="255.55" r="3" fill="#b5222c"/>
<circle cx="955.60" cy="264.32" r="3" fill="#b5222c"/>
<circle cx="958.60" cy="280.37" r="3" fill="#b5222c"/>
<circle cx="961.61" cy="255.51" r="3" fill="#b5222c"/>
<circle cx="964.61" cy="271.71" r="3" fill="#b5222c"/>
<circle cx="967.62" cy="268.05" r="3" fill="#b5222c"/>
<circle cx="970.62" cy="253.36" r="3" fill="#b5222c"/>
<circle cx="973.63" cy="239.74" r="3" fill="#b5222c"/>
<circle cx="976.64" cy="253.48" r="3" fill="#b5222c"/>
<circle cx="979.64" cy="249.04" r="3" fill="#b5222c"/>
<circle cx="982.65" cy="250.46" r="3" fill="#b5222c"/>
<circle cx="985.65" cy="277.30" r="3" fill="#b5222c"/>
<circle cx="988.66" cy="207.56" r="3" fill="#b5222c"/>
<circle cx="991.67" cy="257.31" r="3" fill="#b5222c"/>
<circle cx="994.67" cy="277.91" r="3" fill="#b5222c"/>
<circle cx="997.68" cy="256.40" r="3" fill="#b5222c"/>
<circle cx="1000.68" cy="270.66" r="3" fill="#b5222c"/>
<circle cx="1003.69" cy="265.06" r="3" fill="#b5222c"/>
<circle cx="1006.70" cy="262.74" r="3" fill="#b5222c"/>
<circle cx="1009.70" cy="277.82" r="3" fill="#b5222c"/>
<circle cx="1012.71" cy="251.83" r="3" fill="#b5222c"/>
<circle cx="1015.71" cy="241.09" r="3" fill="#b5222c"/>
<circle cx="1018.72" cy="263.96" r="3" fill="#b5222c"/>
<circle cx="1021.73" cy="259.12" r="3" fill="#b5222c"/>
<circle cx="1024.73" cy="275.24" r="3" fill="#b5222c"/>
<circle cx="1027.74" cy="263.70" r="3" fill="#b5222c"/>
<circle cx="1030.74" cy="254.56" r="3" fill="#b5222c"/>
<circle cx="1033.75" cy="273.77" r="3" fill="#b5222c"/>
<circle cx="1036.76" cy="289.67" r="3" fill="#b5222c"/>
<circle cx="1039.76" cy="261.37" r="3" fill="#b5222c"/>
<circle cx="1042.77" cy="264.81" r="3" fill="#b5222c"/>
<circle cx="1045.77" cy="272.38" r="3" fill="#b5222c"/>
<circle cx="1048.78" cy="259.62" r="3" fill="#b5222c"/>
<circle cx="1051.79" cy="266.20" r="3" fill="#b5222c"/>
<circle cx="1054.79" cy="288.86" r="3" fill="#b5222c"/>
<circle cx="1057.80" cy="278.06" r="3" fill="#b5222c"/>
<circle cx="1060.80" cy="273.50" r="3" fill="#b5222c"/>
<circle cx="1063.81" cy="253.12" r="3" fill="#b5222c"/>
<circle cx="1066.82" cy="264.25" r="3" fill="#b5222c"/>
<circle cx="1069.82" cy="266.13" r="3" fill="#b5222c"/>
<circle cx="1072.83" cy="277.67" r="3" fill="#b5222c"/>
<circle cx="1075.83" cy="275.27" r="3" fill="#b5222c"/>
<circle cx="1078.84" cy="282.08" r="3" fill="#b5222c"/>
<circle cx="1081.85" cy="288.58" r="3" fill="#b5222c"/>
<circle cx="1084.85" cy="277.86" r="3" fill="#b5222c"/>
<circle cx="1087.86" cy="288.03" r="3" fill="#b5222c"/>
<circle cx="1090.86" cy="292.59" r="3" fill="#b5222c"/>
<circle cx="1093.87" cy="288.48" r="3" fill="#b5222c"/>
<circle cx="1096.88" cy="278.52" r="3" fill="#b5222c"/>
<circle cx="1099.88" cy="278.51" r="3" fill="#b5222c"/>
<circle cx="1102.89" cy="248.54" r="3" fill="#b5222c"/>
<circle cx="1105.89" cy="251.90" r="3" fill="#b5222c"/>
<circle cx="1108.90" cy="258.49" r="3" fill="#b5222c"/>
<circle cx="1111.90" cy="255.47" r="3" fill="#b5222c"/>
<circle cx="1114.91" cy="269.06" r="3" fill="#b5222c"/>
<circle cx="1117.92" cy="257.12" r="3" fill="#b5222c"/>
<circle cx="1120.92" cy="250.65" r="3" fill="#b5222c"/>
<circle cx="1123.93" cy="245.36" r="3" fill="#b5222c"/>
<circle cx="1126.93" cy="252.93" r="3" fill="#b5222c"/>
<circle cx="1129.94" cy="255.12" r="3" fill="#b5222c"/>
<circle cx="1132.95" cy="271.67" r="3" fill="#b5222c"/>
<circle cx="1135.95" cy="262.05" r="3" fill="#b5222c"/>
<circle cx="1138.96" cy="277.62" r="3" fill="#b5222c"/>
<circle cx="1141.96" cy="293.27" r="3" fill="#b5222c"/>
<circle cx="1144.97" cy="272.38" r="3" fill="#b5222c"/>
<circle cx="1147.98" cy="269.85" r="3" fill="#b5222c"/>
<circle cx="1150.98" cy="287.27" r="3" fill="#b5222c"/>
<circle cx="1153.99" cy="290.56" r="3" fill="#b5222c"/>
<circle cx="1156.99" cy="266.27" r="3" fill="#b5222c"/>
<circle cx="1160.00" cy="269.75" r="3" fill="#b5222c"/>
<path d="M655.00,247.41 L658.01,261.14 L661.01,262.78 L664.02,259.29 L667.02,244.36 L670.03,265.19 L673.04,274.98 L676.04,259.31 L679.05,249.18 L682.05,266.76 L685.06,254.72 L688.07,262.82 L691.07,258.60 L694.08,266.31 L697.08,245.88 L700.09,238.97 L703.10,253.72 L706.10,278.60 L709.11,253.51 L712.11,273.00 L715.12,266.47 L718.12,262.00 L721.13,254.02 L724.14,247.62 L727.14,260.99 L730.15,224.94 L733.15,264.48 L736.16,255.25 L739.17,261.95 L742.17,256.49 L745.18,257.94 L748.18,268.31 L751.19,264.60 L754.20,259.00 L757.20,250.83 L760.21,267.15 L763.21,262.28 L766.22,278.04 L769.23,276.70 L772.23,262.03 L775.24,269.86 L778.24,264.14 L781.25,244.54 L784.26,233.80 L787.26,263.00 L790.27,264.96 L793.27,263.22 L796.28,252.94 L799.29,273.14 L802.29,258.68 L805.30,283.68 L808.30,269.54 L811.31,249.06 L814.32,261.71 L817.32,264.77 L820.33,254.92 L823.33,247.58 L826.34,259.40 L829.35,250.17 L832.35,286.39 L835.36,253.16 L838.36,256.72 L841.37,256.89 L844.38,259.19 L847.38,266.56 L850.39,274.64 L853.39,272.66 L856.40,280.29 L859.40,275.68 L862.41,272.37 L865.42,264.17 L868.42,239.43 L871.43,254.58 L874.43,258.48 L877.44,271.04 L880.45,265.61 L883.45,270.82 L886.46,261.47 L889.46,276.57 L892.47,259.30 L895.48,262.94 L898.48,264.01 L901.49,263.23 L904.49,291.04 L907.50,258.68 L910.51,251.94 L913.51,273.41 L916.52,280.76 L919.52,263.62 L922.53,265.15 L925.54,249.30 L928.54,273.06 L931.55,264.84 L934.55,268.54 L937.56,256.84 L940.57,258.35 L943.57,238.76 L946.58,260.26 L949.58,259.28 L952.59,255.55 L955.60,264.32 L958.60,280.37 L961.61,255.51 L964.61,271.71 L967.62,268.05 L970.62,253.36 L973.63,239.74 L976.64,253.48 L979.64,249.04 L982.65,250.46 L985.65,277.30 L988.66,207.56 L991.67,257.31 L994.67,277.91 L997.68,256.40 L1000.68,270.66 L1003.69,265.06 L1006.70,262.74 L1009.70,277.82 L1012.71,251.83 L1015.71,241.09 L1018.72,263.96 L1021.73,259.12 L1024.73,275.24 L1027.74,263.70 L1030.74,254.56 L1033.75,273.77 L1036.76,289.67 L1039.76,261.37 L1042.77,264.81 L1045.77,272.38 L1048.78,259.62 L1051.79,266.20 L1054.79,288.86 L1057.80,278.06 L1060.80,273.50 L1063.81,253.12 L1066.82,264.25 L1069.82,266.13 L1072.83,277.67 L1075.83,275.27 L1078.84,282.08 L1081.85,288.58 L1084.85,277.86 L1087.86,288.03 L1090.86,292.59 L1093.87,288.48 L1096.88,278.52 L1099.88,278.51 L1102.89,248.54 L1105.89,251.90 L1108.90,258.49 L1111.90,255.47 L1114.91,269.06 L1117.92,257.12 L1120.92,250.65 L1123.93,245.36 L1126.93,252.93 L1129.94,255.12 L1132.95,271.67 L1135.95,262.05 L1138.96,277.62 L1141.96,293.27 L1144.97,272.38 L1147.98,269.85 L1150.98,287.27 L1153.99,290.56 L1156.99,266.27 L1160.00,269.75" fill="none" stroke="#b5222c" stroke-width="2.5" stroke-dasharray="6 4"/>
<text x="655.00" y="333" text-anchor="middle" font-size="12">491,520</text>
<text x="1160.00" y="333" text-anchor="middle" font-size="12">663,552</text>
<text x="907.5" y="353" text-anchor="middle" font-size="12">Verified tasks at evaluation end</text>
<text x="65" y="390" font-size="19">Curve intervals</text>
<path d="M65 555.00h505" stroke="#ddd"/><text x="56" y="560.00" text-anchor="end" font-size="12">-8.0%</text>
<path d="M65 492.39h505" stroke="#ddd"/><text x="56" y="497.39" text-anchor="end" font-size="12">0.0%</text>
<path d="M65 410.00h505" stroke="#ddd"/><text x="56" y="415.00" text-anchor="end" font-size="12">10.5%</text>
<circle cx="65.00" cy="459.17" r="3" fill="#111"/>
<circle cx="68.01" cy="446.33" r="3" fill="#111"/>
<circle cx="71.01" cy="462.81" r="3" fill="#111"/>
<circle cx="74.02" cy="447.60" r="3" fill="#111"/>
<circle cx="77.02" cy="459.92" r="3" fill="#111"/>
<circle cx="80.03" cy="458.73" r="3" fill="#111"/>
<circle cx="83.04" cy="465.38" r="3" fill="#111"/>
<circle cx="86.04" cy="453.33" r="3" fill="#111"/>
<circle cx="89.05" cy="447.03" r="3" fill="#111"/>
<circle cx="92.05" cy="469.59" r="3" fill="#111"/>
<circle cx="95.06" cy="467.04" r="3" fill="#111"/>
<circle cx="98.07" cy="460.32" r="3" fill="#111"/>
<circle cx="101.07" cy="447.82" r="3" fill="#111"/>
<circle cx="104.08" cy="451.87" r="3" fill="#111"/>
<circle cx="107.08" cy="455.71" r="3" fill="#111"/>
<circle cx="110.09" cy="469.55" r="3" fill="#111"/>
<circle cx="113.10" cy="459.85" r="3" fill="#111"/>
<circle cx="116.10" cy="471.92" r="3" fill="#111"/>
<circle cx="119.11" cy="457.71" r="3" fill="#111"/>
<circle cx="122.11" cy="450.77" r="3" fill="#111"/>
<circle cx="125.12" cy="474.99" r="3" fill="#111"/>
<circle cx="128.12" cy="481.23" r="3" fill="#111"/>
<circle cx="131.13" cy="465.13" r="3" fill="#111"/>
<circle cx="134.14" cy="469.16" r="3" fill="#111"/>
<circle cx="137.14" cy="481.81" r="3" fill="#111"/>
<circle cx="140.15" cy="470.87" r="3" fill="#111"/>
<circle cx="143.15" cy="481.54" r="3" fill="#111"/>
<circle cx="146.16" cy="456.26" r="3" fill="#111"/>
<circle cx="149.17" cy="474.87" r="3" fill="#111"/>
<circle cx="152.17" cy="456.99" r="3" fill="#111"/>
<circle cx="155.18" cy="464.50" r="3" fill="#111"/>
<circle cx="158.18" cy="474.12" r="3" fill="#111"/>
<circle cx="161.19" cy="478.02" r="3" fill="#111"/>
<circle cx="164.20" cy="456.05" r="3" fill="#111"/>
<circle cx="167.20" cy="459.05" r="3" fill="#111"/>
<circle cx="170.21" cy="468.34" r="3" fill="#111"/>
<circle cx="173.21" cy="460.22" r="3" fill="#111"/>
<circle cx="176.22" cy="455.57" r="3" fill="#111"/>
<circle cx="179.23" cy="473.58" r="3" fill="#111"/>
<circle cx="182.23" cy="462.08" r="3" fill="#111"/>
<circle cx="185.24" cy="478.08" r="3" fill="#111"/>
<circle cx="188.24" cy="461.92" r="3" fill="#111"/>
<circle cx="191.25" cy="452.81" r="3" fill="#111"/>
<circle cx="194.26" cy="453.71" r="3" fill="#111"/>
<circle cx="197.26" cy="452.48" r="3" fill="#111"/>
<circle cx="200.27" cy="474.11" r="3" fill="#111"/>
<circle cx="203.27" cy="459.36" r="3" fill="#111"/>
<circle cx="206.28" cy="449.99" r="3" fill="#111"/>
<circle cx="209.29" cy="444.80" r="3" fill="#111"/>
<circle cx="212.29" cy="466.77" r="3" fill="#111"/>
<circle cx="215.30" cy="473.28" r="3" fill="#111"/>
<circle cx="218.30" cy="471.89" r="3" fill="#111"/>
<circle cx="221.31" cy="462.42" r="3" fill="#111"/>
<circle cx="224.32" cy="451.02" r="3" fill="#111"/>
<circle cx="227.32" cy="462.95" r="3" fill="#111"/>
<circle cx="230.33" cy="456.95" r="3" fill="#111"/>
<circle cx="233.33" cy="470.84" r="3" fill="#111"/>
<circle cx="236.34" cy="452.31" r="3" fill="#111"/>
<circle cx="239.35" cy="469.20" r="3" fill="#111"/>
<circle cx="242.35" cy="459.77" r="3" fill="#111"/>
<circle cx="245.36" cy="470.66" r="3" fill="#111"/>
<circle cx="248.36" cy="454.45" r="3" fill="#111"/>
<circle cx="251.37" cy="457.63" r="3" fill="#111"/>
<circle cx="254.38" cy="455.92" r="3" fill="#111"/>
<circle cx="257.38" cy="459.07" r="3" fill="#111"/>
<circle cx="260.39" cy="467.47" r="3" fill="#111"/>
<circle cx="263.39" cy="451.92" r="3" fill="#111"/>
<circle cx="266.40" cy="466.88" r="3" fill="#111"/>
<circle cx="269.40" cy="469.07" r="3" fill="#111"/>
<circle cx="272.41" cy="470.45" r="3" fill="#111"/>
<circle cx="275.42" cy="455.59" r="3" fill="#111"/>
<circle cx="278.42" cy="457.26" r="3" fill="#111"/>
<circle cx="281.43" cy="448.69" r="3" fill="#111"/>
<circle cx="284.43" cy="443.90" r="3" fill="#111"/>
<circle cx="287.44" cy="470.74" r="3" fill="#111"/>
<circle cx="290.45" cy="453.49" r="3" fill="#111"/>
<circle cx="293.45" cy="466.89" r="3" fill="#111"/>
<circle cx="296.46" cy="438.09" r="3" fill="#111"/>
<circle cx="299.46" cy="465.65" r="3" fill="#111"/>
<circle cx="302.47" cy="448.99" r="3" fill="#111"/>
<circle cx="305.48" cy="452.41" r="3" fill="#111"/>
<circle cx="308.48" cy="457.18" r="3" fill="#111"/>
<circle cx="311.49" cy="445.81" r="3" fill="#111"/>
<circle cx="314.49" cy="455.67" r="3" fill="#111"/>
<circle cx="317.50" cy="451.21" r="3" fill="#111"/>
<circle cx="320.51" cy="453.97" r="3" fill="#111"/>
<circle cx="323.51" cy="455.96" r="3" fill="#111"/>
<circle cx="326.52" cy="459.89" r="3" fill="#111"/>
<circle cx="329.52" cy="460.22" r="3" fill="#111"/>
<circle cx="332.53" cy="453.81" r="3" fill="#111"/>
<circle cx="335.54" cy="450.15" r="3" fill="#111"/>
<circle cx="338.54" cy="453.74" r="3" fill="#111"/>
<circle cx="341.55" cy="457.77" r="3" fill="#111"/>
<circle cx="344.55" cy="456.55" r="3" fill="#111"/>
<circle cx="347.56" cy="457.03" r="3" fill="#111"/>
<circle cx="350.57" cy="457.60" r="3" fill="#111"/>
<circle cx="353.57" cy="454.00" r="3" fill="#111"/>
<circle cx="356.58" cy="459.88" r="3" fill="#111"/>
<circle cx="359.58" cy="462.23" r="3" fill="#111"/>
<circle cx="362.59" cy="460.05" r="3" fill="#111"/>
<circle cx="365.60" cy="444.53" r="3" fill="#111"/>
<circle cx="368.60" cy="455.64" r="3" fill="#111"/>
<circle cx="371.61" cy="445.49" r="3" fill="#111"/>
<circle cx="374.61" cy="461.23" r="3" fill="#111"/>
<circle cx="377.62" cy="452.49" r="3" fill="#111"/>
<circle cx="380.62" cy="446.98" r="3" fill="#111"/>
<circle cx="383.63" cy="449.36" r="3" fill="#111"/>
<circle cx="386.64" cy="446.08" r="3" fill="#111"/>
<circle cx="389.64" cy="449.67" r="3" fill="#111"/>
<circle cx="392.65" cy="463.44" r="3" fill="#111"/>
<circle cx="395.65" cy="463.09" r="3" fill="#111"/>
<circle cx="398.66" cy="436.76" r="3" fill="#111"/>
<circle cx="401.67" cy="463.56" r="3" fill="#111"/>
<circle cx="404.67" cy="464.36" r="3" fill="#111"/>
<circle cx="407.68" cy="458.95" r="3" fill="#111"/>
<circle cx="410.68" cy="463.17" r="3" fill="#111"/>
<circle cx="413.69" cy="448.08" r="3" fill="#111"/>
<circle cx="416.70" cy="439.26" r="3" fill="#111"/>
<circle cx="419.70" cy="450.15" r="3" fill="#111"/>
<circle cx="422.71" cy="451.31" r="3" fill="#111"/>
<circle cx="425.71" cy="426.73" r="3" fill="#111"/>
<circle cx="428.72" cy="453.90" r="3" fill="#111"/>
<circle cx="431.73" cy="448.70" r="3" fill="#111"/>
<circle cx="434.73" cy="446.60" r="3" fill="#111"/>
<circle cx="437.74" cy="449.05" r="3" fill="#111"/>
<circle cx="440.74" cy="447.71" r="3" fill="#111"/>
<circle cx="443.75" cy="454.29" r="3" fill="#111"/>
<circle cx="446.76" cy="473.09" r="3" fill="#111"/>
<circle cx="449.76" cy="449.61" r="3" fill="#111"/>
<circle cx="452.77" cy="445.80" r="3" fill="#111"/>
<circle cx="455.77" cy="462.62" r="3" fill="#111"/>
<circle cx="458.78" cy="444.27" r="3" fill="#111"/>
<circle cx="461.79" cy="464.79" r="3" fill="#111"/>
<circle cx="464.79" cy="465.45" r="3" fill="#111"/>
<circle cx="467.80" cy="452.54" r="3" fill="#111"/>
<circle cx="470.80" cy="469.33" r="3" fill="#111"/>
<circle cx="473.81" cy="436.57" r="3" fill="#111"/>
<circle cx="476.82" cy="452.02" r="3" fill="#111"/>
<circle cx="479.82" cy="455.80" r="3" fill="#111"/>
<circle cx="482.83" cy="458.35" r="3" fill="#111"/>
<circle cx="485.83" cy="468.24" r="3" fill="#111"/>
<circle cx="488.84" cy="481.77" r="3" fill="#111"/>
<circle cx="491.85" cy="489.42" r="3" fill="#111"/>
<circle cx="494.85" cy="466.03" r="3" fill="#111"/>
<circle cx="497.86" cy="489.80" r="3" fill="#111"/>
<circle cx="500.86" cy="496.20" r="3" fill="#111"/>
<circle cx="503.87" cy="504.09" r="3" fill="#111"/>
<circle cx="506.88" cy="479.10" r="3" fill="#111"/>
<circle cx="509.88" cy="490.22" r="3" fill="#111"/>
<circle cx="512.89" cy="476.18" r="3" fill="#111"/>
<circle cx="515.89" cy="505.17" r="3" fill="#111"/>
<circle cx="518.90" cy="482.90" r="3" fill="#111"/>
<circle cx="521.90" cy="481.64" r="3" fill="#111"/>
<circle cx="524.91" cy="502.18" r="3" fill="#111"/>
<circle cx="527.92" cy="494.56" r="3" fill="#111"/>
<circle cx="530.92" cy="477.56" r="3" fill="#111"/>
<circle cx="533.93" cy="490.19" r="3" fill="#111"/>
<circle cx="536.93" cy="486.51" r="3" fill="#111"/>
<circle cx="539.94" cy="489.40" r="3" fill="#111"/>
<circle cx="542.95" cy="490.88" r="3" fill="#111"/>
<circle cx="545.95" cy="492.51" r="3" fill="#111"/>
<circle cx="548.96" cy="493.37" r="3" fill="#111"/>
<circle cx="551.96" cy="492.54" r="3" fill="#111"/>
<circle cx="554.97" cy="495.41" r="3" fill="#111"/>
<circle cx="557.98" cy="495.86" r="3" fill="#111"/>
<circle cx="560.98" cy="492.50" r="3" fill="#111"/>
<circle cx="563.99" cy="493.00" r="3" fill="#111"/>
<circle cx="566.99" cy="491.71" r="3" fill="#111"/>
<circle cx="570.00" cy="491.72" r="3" fill="#111"/>
<path d="M65.00,459.17 L68.01,446.33 L71.01,462.81 L74.02,447.60 L77.02,459.92 L80.03,458.73 L83.04,465.38 L86.04,453.33 L89.05,447.03 L92.05,469.59 L95.06,467.04 L98.07,460.32 L101.07,447.82 L104.08,451.87 L107.08,455.71 L110.09,469.55 L113.10,459.85 L116.10,471.92 L119.11,457.71 L122.11,450.77 L125.12,474.99 L128.12,481.23 L131.13,465.13 L134.14,469.16 L137.14,481.81 L140.15,470.87 L143.15,481.54 L146.16,456.26 L149.17,474.87 L152.17,456.99 L155.18,464.50 L158.18,474.12 L161.19,478.02 L164.20,456.05 L167.20,459.05 L170.21,468.34 L173.21,460.22 L176.22,455.57 L179.23,473.58 L182.23,462.08 L185.24,478.08 L188.24,461.92 L191.25,452.81 L194.26,453.71 L197.26,452.48 L200.27,474.11 L203.27,459.36 L206.28,449.99 L209.29,444.80 L212.29,466.77 L215.30,473.28 L218.30,471.89 L221.31,462.42 L224.32,451.02 L227.32,462.95 L230.33,456.95 L233.33,470.84 L236.34,452.31 L239.35,469.20 L242.35,459.77 L245.36,470.66 L248.36,454.45 L251.37,457.63 L254.38,455.92 L257.38,459.07 L260.39,467.47 L263.39,451.92 L266.40,466.88 L269.40,469.07 L272.41,470.45 L275.42,455.59 L278.42,457.26 L281.43,448.69 L284.43,443.90 L287.44,470.74 L290.45,453.49 L293.45,466.89 L296.46,438.09 L299.46,465.65 L302.47,448.99 L305.48,452.41 L308.48,457.18 L311.49,445.81 L314.49,455.67 L317.50,451.21 L320.51,453.97 L323.51,455.96 L326.52,459.89 L329.52,460.22 L332.53,453.81 L335.54,450.15 L338.54,453.74 L341.55,457.77 L344.55,456.55 L347.56,457.03 L350.57,457.60 L353.57,454.00 L356.58,459.88 L359.58,462.23 L362.59,460.05 L365.60,444.53 L368.60,455.64 L371.61,445.49 L374.61,461.23 L377.62,452.49 L380.62,446.98 L383.63,449.36 L386.64,446.08 L389.64,449.67 L392.65,463.44 L395.65,463.09 L398.66,436.76 L401.67,463.56 L404.67,464.36 L407.68,458.95 L410.68,463.17 L413.69,448.08 L416.70,439.26 L419.70,450.15 L422.71,451.31 L425.71,426.73 L428.72,453.90 L431.73,448.70 L434.73,446.60 L437.74,449.05 L440.74,447.71 L443.75,454.29 L446.76,473.09 L449.76,449.61 L452.77,445.80 L455.77,462.62 L458.78,444.27 L461.79,464.79 L464.79,465.45 L467.80,452.54 L470.80,469.33 L473.81,436.57 L476.82,452.02 L479.82,455.80 L482.83,458.35 L485.83,468.24 L488.84,481.77 L491.85,489.42 L494.85,466.03 L497.86,489.80 L500.86,496.20 L503.87,504.09 L506.88,479.10 L509.88,490.22 L512.89,476.18 L515.89,505.17 L518.90,482.90 L521.90,481.64 L524.91,502.18 L527.92,494.56 L530.92,477.56 L533.93,490.19 L536.93,486.51 L539.94,489.40 L542.95,490.88 L545.95,492.51 L548.96,493.37 L551.96,492.54 L554.97,495.41 L557.98,495.86 L560.98,492.50 L563.99,493.00 L566.99,491.71 L570.00,491.72" fill="none" stroke="#111" stroke-width="2.5" stroke-dasharray=""/>
<circle cx="65.00" cy="470.42" r="3" fill="#b5222c"/>
<circle cx="68.01" cy="479.43" r="3" fill="#b5222c"/>
<circle cx="71.01" cy="480.81" r="3" fill="#b5222c"/>
<circle cx="74.02" cy="464.80" r="3" fill="#b5222c"/>
<circle cx="77.02" cy="473.15" r="3" fill="#b5222c"/>
<circle cx="80.03" cy="474.14" r="3" fill="#b5222c"/>
<circle cx="83.04" cy="482.51" r="3" fill="#b5222c"/>
<circle cx="86.04" cy="471.99" r="3" fill="#b5222c"/>
<circle cx="89.05" cy="460.06" r="3" fill="#b5222c"/>
<circle cx="92.05" cy="502.56" r="3" fill="#b5222c"/>
<circle cx="95.06" cy="494.13" r="3" fill="#b5222c"/>
<circle cx="98.07" cy="478.62" r="3" fill="#b5222c"/>
<circle cx="101.07" cy="470.78" r="3" fill="#b5222c"/>
<circle cx="104.08" cy="470.48" r="3" fill="#b5222c"/>
<circle cx="107.08" cy="464.12" r="3" fill="#b5222c"/>
<circle cx="110.09" cy="492.59" r="3" fill="#b5222c"/>
<circle cx="113.10" cy="504.55" r="3" fill="#b5222c"/>
<circle cx="116.10" cy="529.69" r="3" fill="#b5222c"/>
<circle cx="119.11" cy="481.17" r="3" fill="#b5222c"/>
<circle cx="122.11" cy="465.06" r="3" fill="#b5222c"/>
<circle cx="125.12" cy="482.56" r="3" fill="#b5222c"/>
<circle cx="128.12" cy="527.09" r="3" fill="#b5222c"/>
<circle cx="131.13" cy="522.02" r="3" fill="#b5222c"/>
<circle cx="134.14" cy="501.39" r="3" fill="#b5222c"/>
<circle cx="137.14" cy="527.74" r="3" fill="#b5222c"/>
<circle cx="140.15" cy="493.17" r="3" fill="#b5222c"/>
<circle cx="143.15" cy="510.19" r="3" fill="#b5222c"/>
<circle cx="146.16" cy="468.09" r="3" fill="#b5222c"/>
<circle cx="149.17" cy="496.03" r="3" fill="#b5222c"/>
<circle cx="152.17" cy="474.57" r="3" fill="#b5222c"/>
<circle cx="155.18" cy="487.59" r="3" fill="#b5222c"/>
<circle cx="158.18" cy="504.99" r="3" fill="#b5222c"/>
<circle cx="161.19" cy="499.02" r="3" fill="#b5222c"/>
<circle cx="164.20" cy="499.35" r="3" fill="#b5222c"/>
<circle cx="167.20" cy="480.49" r="3" fill="#b5222c"/>
<circle cx="170.21" cy="498.84" r="3" fill="#b5222c"/>
<circle cx="173.21" cy="491.73" r="3" fill="#b5222c"/>
<circle cx="176.22" cy="492.01" r="3" fill="#b5222c"/>
<circle cx="179.23" cy="513.22" r="3" fill="#b5222c"/>
<circle cx="182.23" cy="504.56" r="3" fill="#b5222c"/>
<circle cx="185.24" cy="524.44" r="3" fill="#b5222c"/>
<circle cx="188.24" cy="483.87" r="3" fill="#b5222c"/>
<circle cx="191.25" cy="465.56" r="3" fill="#b5222c"/>
<circle cx="194.26" cy="502.64" r="3" fill="#b5222c"/>
<circle cx="197.26" cy="509.49" r="3" fill="#b5222c"/>
<circle cx="200.27" cy="499.22" r="3" fill="#b5222c"/>
<circle cx="203.27" cy="488.90" r="3" fill="#b5222c"/>
<circle cx="206.28" cy="455.81" r="3" fill="#b5222c"/>
<circle cx="209.29" cy="461.96" r="3" fill="#b5222c"/>
<circle cx="212.29" cy="538.27" r="3" fill="#b5222c"/>
<circle cx="215.30" cy="519.29" r="3" fill="#b5222c"/>
<circle cx="218.30" cy="507.87" r="3" fill="#b5222c"/>
<circle cx="221.31" cy="459.18" r="3" fill="#b5222c"/>
<circle cx="224.32" cy="484.10" r="3" fill="#b5222c"/>
<circle cx="227.32" cy="494.71" r="3" fill="#b5222c"/>
<circle cx="230.33" cy="454.91" r="3" fill="#b5222c"/>
<circle cx="233.33" cy="507.45" r="3" fill="#b5222c"/>
<circle cx="236.34" cy="480.82" r="3" fill="#b5222c"/>
<circle cx="239.35" cy="488.25" r="3" fill="#b5222c"/>
<circle cx="242.35" cy="514.45" r="3" fill="#b5222c"/>
<circle cx="245.36" cy="489.22" r="3" fill="#b5222c"/>
<circle cx="248.36" cy="469.16" r="3" fill="#b5222c"/>
<circle cx="251.37" cy="455.60" r="3" fill="#b5222c"/>
<circle cx="254.38" cy="480.03" r="3" fill="#b5222c"/>
<circle cx="257.38" cy="462.83" r="3" fill="#b5222c"/>
<circle cx="260.39" cy="493.44" r="3" fill="#b5222c"/>
<circle cx="263.39" cy="478.04" r="3" fill="#b5222c"/>
<circle cx="266.40" cy="490.50" r="3" fill="#b5222c"/>
<circle cx="269.40" cy="512.00" r="3" fill="#b5222c"/>
<circle cx="272.41" cy="510.85" r="3" fill="#b5222c"/>
<circle cx="275.42" cy="474.45" r="3" fill="#b5222c"/>
<circle cx="278.42" cy="472.60" r="3" fill="#b5222c"/>
<circle cx="281.43" cy="470.12" r="3" fill="#b5222c"/>
<circle cx="284.43" cy="469.57" r="3" fill="#b5222c"/>
<circle cx="287.44" cy="494.49" r="3" fill="#b5222c"/>
<circle cx="290.45" cy="478.54" r="3" fill="#b5222c"/>
<circle cx="293.45" cy="511.15" r="3" fill="#b5222c"/>
<circle cx="296.46" cy="460.31" r="3" fill="#b5222c"/>
<circle cx="299.46" cy="500.09" r="3" fill="#b5222c"/>
<circle cx="302.47" cy="495.67" r="3" fill="#b5222c"/>
<circle cx="305.48" cy="478.35" r="3" fill="#b5222c"/>
<circle cx="308.48" cy="511.66" r="3" fill="#b5222c"/>
<circle cx="311.49" cy="478.41" r="3" fill="#b5222c"/>
<circle cx="314.49" cy="496.85" r="3" fill="#b5222c"/>
<circle cx="317.50" cy="477.25" r="3" fill="#b5222c"/>
<circle cx="320.51" cy="502.59" r="3" fill="#b5222c"/>
<circle cx="323.51" cy="490.30" r="3" fill="#b5222c"/>
<circle cx="326.52" cy="511.15" r="3" fill="#b5222c"/>
<circle cx="329.52" cy="501.53" r="3" fill="#b5222c"/>
<circle cx="332.53" cy="479.72" r="3" fill="#b5222c"/>
<circle cx="335.54" cy="464.73" r="3" fill="#b5222c"/>
<circle cx="338.54" cy="477.79" r="3" fill="#b5222c"/>
<circle cx="341.55" cy="479.03" r="3" fill="#b5222c"/>
<circle cx="344.55" cy="492.85" r="3" fill="#b5222c"/>
<circle cx="347.56" cy="480.10" r="3" fill="#b5222c"/>
<circle cx="350.57" cy="483.00" r="3" fill="#b5222c"/>
<circle cx="353.57" cy="456.21" r="3" fill="#b5222c"/>
<circle cx="356.58" cy="468.03" r="3" fill="#b5222c"/>
<circle cx="359.58" cy="491.49" r="3" fill="#b5222c"/>
<circle cx="362.59" cy="469.95" r="3" fill="#b5222c"/>
<circle cx="365.60" cy="484.08" r="3" fill="#b5222c"/>
<circle cx="368.60" cy="491.87" r="3" fill="#b5222c"/>
<circle cx="371.61" cy="453.83" r="3" fill="#b5222c"/>
<circle cx="374.61" cy="481.35" r="3" fill="#b5222c"/>
<circle cx="377.62" cy="461.04" r="3" fill="#b5222c"/>
<circle cx="380.62" cy="460.81" r="3" fill="#b5222c"/>
<circle cx="383.63" cy="428.94" r="3" fill="#b5222c"/>
<circle cx="386.64" cy="447.67" r="3" fill="#b5222c"/>
<circle cx="389.64" cy="461.54" r="3" fill="#b5222c"/>
<circle cx="392.65" cy="467.02" r="3" fill="#b5222c"/>
<circle cx="395.65" cy="485.76" r="3" fill="#b5222c"/>
<circle cx="398.66" cy="428.74" r="3" fill="#b5222c"/>
<circle cx="401.67" cy="491.77" r="3" fill="#b5222c"/>
<circle cx="404.67" cy="493.30" r="3" fill="#b5222c"/>
<circle cx="407.68" cy="482.88" r="3" fill="#b5222c"/>
<circle cx="410.68" cy="482.22" r="3" fill="#b5222c"/>
<circle cx="413.69" cy="464.02" r="3" fill="#b5222c"/>
<circle cx="416.70" cy="456.87" r="3" fill="#b5222c"/>
<circle cx="419.70" cy="476.94" r="3" fill="#b5222c"/>
<circle cx="422.71" cy="465.20" r="3" fill="#b5222c"/>
<circle cx="425.71" cy="435.06" r="3" fill="#b5222c"/>
<circle cx="428.72" cy="475.25" r="3" fill="#b5222c"/>
<circle cx="431.73" cy="459.80" r="3" fill="#b5222c"/>
<circle cx="434.73" cy="472.04" r="3" fill="#b5222c"/>
<circle cx="437.74" cy="462.36" r="3" fill="#b5222c"/>
<circle cx="440.74" cy="447.75" r="3" fill="#b5222c"/>
<circle cx="443.75" cy="479.84" r="3" fill="#b5222c"/>
<circle cx="446.76" cy="505.79" r="3" fill="#b5222c"/>
<circle cx="449.76" cy="462.47" r="3" fill="#b5222c"/>
<circle cx="452.77" cy="459.24" r="3" fill="#b5222c"/>
<circle cx="455.77" cy="479.56" r="3" fill="#b5222c"/>
<circle cx="458.78" cy="443.38" r="3" fill="#b5222c"/>
<circle cx="461.79" cy="486.58" r="3" fill="#b5222c"/>
<circle cx="464.79" cy="503.68" r="3" fill="#b5222c"/>
<circle cx="467.80" cy="478.82" r="3" fill="#b5222c"/>
<circle cx="470.80" cy="478.00" r="3" fill="#b5222c"/>
<circle cx="473.81" cy="440.57" r="3" fill="#b5222c"/>
<circle cx="476.82" cy="470.10" r="3" fill="#b5222c"/>
<circle cx="479.82" cy="469.44" r="3" fill="#b5222c"/>
<circle cx="482.83" cy="487.19" r="3" fill="#b5222c"/>
<circle cx="485.83" cy="482.29" r="3" fill="#b5222c"/>
<circle cx="488.84" cy="492.72" r="3" fill="#b5222c"/>
<circle cx="491.85" cy="510.19" r="3" fill="#b5222c"/>
<circle cx="494.85" cy="481.01" r="3" fill="#b5222c"/>
<circle cx="497.86" cy="504.52" r="3" fill="#b5222c"/>
<circle cx="500.86" cy="513.11" r="3" fill="#b5222c"/>
<circle cx="503.87" cy="511.85" r="3" fill="#b5222c"/>
<circle cx="506.88" cy="475.24" r="3" fill="#b5222c"/>
<circle cx="509.88" cy="495.60" r="3" fill="#b5222c"/>
<circle cx="512.89" cy="474.52" r="3" fill="#b5222c"/>
<circle cx="515.89" cy="479.92" r="3" fill="#b5222c"/>
<circle cx="518.90" cy="449.84" r="3" fill="#b5222c"/>
<circle cx="521.90" cy="449.33" r="3" fill="#b5222c"/>
<circle cx="524.91" cy="479.18" r="3" fill="#b5222c"/>
<circle cx="527.92" cy="463.09" r="3" fill="#b5222c"/>
<circle cx="530.92" cy="450.86" r="3" fill="#b5222c"/>
<circle cx="533.93" cy="466.56" r="3" fill="#b5222c"/>
<circle cx="536.93" cy="475.64" r="3" fill="#b5222c"/>
<circle cx="539.94" cy="490.55" r="3" fill="#b5222c"/>
<circle cx="542.95" cy="492.35" r="3" fill="#b5222c"/>
<circle cx="545.95" cy="502.34" r="3" fill="#b5222c"/>
<circle cx="548.96" cy="510.93" r="3" fill="#b5222c"/>
<circle cx="551.96" cy="507.29" r="3" fill="#b5222c"/>
<circle cx="554.97" cy="506.76" r="3" fill="#b5222c"/>
<circle cx="557.98" cy="495.11" r="3" fill="#b5222c"/>
<circle cx="560.98" cy="508.83" r="3" fill="#b5222c"/>
<circle cx="563.99" cy="520.47" r="3" fill="#b5222c"/>
<circle cx="566.99" cy="477.74" r="3" fill="#b5222c"/>
<circle cx="570.00" cy="497.96" r="3" fill="#b5222c"/>
<path d="M65.00,470.42 L68.01,479.43 L71.01,480.81 L74.02,464.80 L77.02,473.15 L80.03,474.14 L83.04,482.51 L86.04,471.99 L89.05,460.06 L92.05,502.56 L95.06,494.13 L98.07,478.62 L101.07,470.78 L104.08,470.48 L107.08,464.12 L110.09,492.59 L113.10,504.55 L116.10,529.69 L119.11,481.17 L122.11,465.06 L125.12,482.56 L128.12,527.09 L131.13,522.02 L134.14,501.39 L137.14,527.74 L140.15,493.17 L143.15,510.19 L146.16,468.09 L149.17,496.03 L152.17,474.57 L155.18,487.59 L158.18,504.99 L161.19,499.02 L164.20,499.35 L167.20,480.49 L170.21,498.84 L173.21,491.73 L176.22,492.01 L179.23,513.22 L182.23,504.56 L185.24,524.44 L188.24,483.87 L191.25,465.56 L194.26,502.64 L197.26,509.49 L200.27,499.22 L203.27,488.90 L206.28,455.81 L209.29,461.96 L212.29,538.27 L215.30,519.29 L218.30,507.87 L221.31,459.18 L224.32,484.10 L227.32,494.71 L230.33,454.91 L233.33,507.45 L236.34,480.82 L239.35,488.25 L242.35,514.45 L245.36,489.22 L248.36,469.16 L251.37,455.60 L254.38,480.03 L257.38,462.83 L260.39,493.44 L263.39,478.04 L266.40,490.50 L269.40,512.00 L272.41,510.85 L275.42,474.45 L278.42,472.60 L281.43,470.12 L284.43,469.57 L287.44,494.49 L290.45,478.54 L293.45,511.15 L296.46,460.31 L299.46,500.09 L302.47,495.67 L305.48,478.35 L308.48,511.66 L311.49,478.41 L314.49,496.85 L317.50,477.25 L320.51,502.59 L323.51,490.30 L326.52,511.15 L329.52,501.53 L332.53,479.72 L335.54,464.73 L338.54,477.79 L341.55,479.03 L344.55,492.85 L347.56,480.10 L350.57,483.00 L353.57,456.21 L356.58,468.03 L359.58,491.49 L362.59,469.95 L365.60,484.08 L368.60,491.87 L371.61,453.83 L374.61,481.35 L377.62,461.04 L380.62,460.81 L383.63,428.94 L386.64,447.67 L389.64,461.54 L392.65,467.02 L395.65,485.76 L398.66,428.74 L401.67,491.77 L404.67,493.30 L407.68,482.88 L410.68,482.22 L413.69,464.02 L416.70,456.87 L419.70,476.94 L422.71,465.20 L425.71,435.06 L428.72,475.25 L431.73,459.80 L434.73,472.04 L437.74,462.36 L440.74,447.75 L443.75,479.84 L446.76,505.79 L449.76,462.47 L452.77,459.24 L455.77,479.56 L458.78,443.38 L461.79,486.58 L464.79,503.68 L467.80,478.82 L470.80,478.00 L473.81,440.57 L476.82,470.10 L479.82,469.44 L482.83,487.19 L485.83,482.29 L488.84,492.72 L491.85,510.19 L494.85,481.01 L497.86,504.52 L500.86,513.11 L503.87,511.85 L506.88,475.24 L509.88,495.60 L512.89,474.52 L515.89,479.92 L518.90,449.84 L521.90,449.33 L524.91,479.18 L527.92,463.09 L530.92,450.86 L533.93,466.56 L536.93,475.64 L539.94,490.55 L542.95,492.35 L545.95,502.34 L548.96,510.93 L551.96,507.29 L554.97,506.76 L557.98,495.11 L560.98,508.83 L563.99,520.47 L566.99,477.74 L570.00,497.96" fill="none" stroke="#b5222c" stroke-width="2.5" stroke-dasharray="6 4"/>
<text x="65.00" y="578" text-anchor="middle" font-size="12">491,520</text>
<text x="570.00" y="578" text-anchor="middle" font-size="12">663,552</text>
<text x="317.5" y="598" text-anchor="middle" font-size="12">Verified tasks at evaluation end</text>
<text x="655" y="390" font-size="19">Exact square tests</text>
<path d="M655 555.00h505" stroke="#ddd"/><text x="646" y="560.00" text-anchor="end" font-size="12">-10.3%</text>
<path d="M655 495.12h505" stroke="#ddd"/><text x="646" y="500.12" text-anchor="end" font-size="12">0.0%</text>
<path d="M655 410.00h505" stroke="#ddd"/><text x="646" y="415.00" text-anchor="end" font-size="12">14.7%</text>
<circle cx="655.00" cy="491.27" r="3" fill="#111"/>
<circle cx="658.01" cy="499.63" r="3" fill="#111"/>
<circle cx="661.01" cy="498.29" r="3" fill="#111"/>
<circle cx="664.02" cy="510.65" r="3" fill="#111"/>
<circle cx="667.02" cy="490.94" r="3" fill="#111"/>
<circle cx="670.03" cy="505.06" r="3" fill="#111"/>
<circle cx="673.04" cy="506.01" r="3" fill="#111"/>
<circle cx="676.04" cy="490.80" r="3" fill="#111"/>
<circle cx="679.05" cy="489.63" r="3" fill="#111"/>
<circle cx="682.05" cy="470.60" r="3" fill="#111"/>
<circle cx="685.06" cy="488.64" r="3" fill="#111"/>
<circle cx="688.07" cy="493.30" r="3" fill="#111"/>
<circle cx="691.07" cy="502.08" r="3" fill="#111"/>
<circle cx="694.08" cy="505.05" r="3" fill="#111"/>
<circle cx="697.08" cy="473.37" r="3" fill="#111"/>
<circle cx="700.09" cy="484.15" r="3" fill="#111"/>
<circle cx="703.10" cy="465.16" r="3" fill="#111"/>
<circle cx="706.10" cy="487.29" r="3" fill="#111"/>
<circle cx="709.11" cy="482.26" r="3" fill="#111"/>
<circle cx="712.11" cy="484.64" r="3" fill="#111"/>
<circle cx="715.12" cy="483.22" r="3" fill="#111"/>
<circle cx="718.12" cy="492.11" r="3" fill="#111"/>
<circle cx="721.13" cy="490.54" r="3" fill="#111"/>
<circle cx="724.14" cy="459.80" r="3" fill="#111"/>
<circle cx="727.14" cy="492.60" r="3" fill="#111"/>
<circle cx="730.15" cy="472.37" r="3" fill="#111"/>
<circle cx="733.15" cy="473.18" r="3" fill="#111"/>
<circle cx="736.16" cy="479.47" r="3" fill="#111"/>
<circle cx="739.17" cy="485.69" r="3" fill="#111"/>
<circle cx="742.17" cy="473.00" r="3" fill="#111"/>
<circle cx="745.18" cy="487.37" r="3" fill="#111"/>
<circle cx="748.18" cy="497.05" r="3" fill="#111"/>
<circle cx="751.19" cy="494.63" r="3" fill="#111"/>
<circle cx="754.20" cy="500.49" r="3" fill="#111"/>
<circle cx="757.20" cy="473.64" r="3" fill="#111"/>
<circle cx="760.21" cy="489.25" r="3" fill="#111"/>
<circle cx="763.21" cy="495.30" r="3" fill="#111"/>
<circle cx="766.22" cy="497.00" r="3" fill="#111"/>
<circle cx="769.23" cy="509.64" r="3" fill="#111"/>
<circle cx="772.23" cy="487.62" r="3" fill="#111"/>
<circle cx="775.24" cy="493.43" r="3" fill="#111"/>
<circle cx="778.24" cy="494.00" r="3" fill="#111"/>
<circle cx="781.25" cy="485.06" r="3" fill="#111"/>
<circle cx="784.26" cy="478.08" r="3" fill="#111"/>
<circle cx="787.26" cy="486.48" r="3" fill="#111"/>
<circle cx="790.27" cy="472.07" r="3" fill="#111"/>
<circle cx="793.27" cy="489.53" r="3" fill="#111"/>
<circle cx="796.28" cy="493.90" r="3" fill="#111"/>
<circle cx="799.29" cy="503.93" r="3" fill="#111"/>
<circle cx="802.29" cy="479.92" r="3" fill="#111"/>
<circle cx="805.30" cy="491.79" r="3" fill="#111"/>
<circle cx="808.30" cy="504.48" r="3" fill="#111"/>
<circle cx="811.31" cy="472.79" r="3" fill="#111"/>
<circle cx="814.32" cy="495.60" r="3" fill="#111"/>
<circle cx="817.32" cy="491.81" r="3" fill="#111"/>
<circle cx="820.33" cy="492.07" r="3" fill="#111"/>
<circle cx="823.33" cy="489.43" r="3" fill="#111"/>
<circle cx="826.34" cy="483.87" r="3" fill="#111"/>
<circle cx="829.35" cy="495.79" r="3" fill="#111"/>
<circle cx="832.35" cy="508.25" r="3" fill="#111"/>
<circle cx="835.36" cy="496.88" r="3" fill="#111"/>
<circle cx="838.36" cy="500.54" r="3" fill="#111"/>
<circle cx="841.37" cy="500.31" r="3" fill="#111"/>
<circle cx="844.38" cy="491.48" r="3" fill="#111"/>
<circle cx="847.38" cy="511.37" r="3" fill="#111"/>
<circle cx="850.39" cy="493.95" r="3" fill="#111"/>
<circle cx="853.39" cy="490.40" r="3" fill="#111"/>
<circle cx="856.40" cy="508.28" r="3" fill="#111"/>
<circle cx="859.40" cy="508.14" r="3" fill="#111"/>
<circle cx="862.41" cy="503.40" r="3" fill="#111"/>
<circle cx="865.42" cy="512.34" r="3" fill="#111"/>
<circle cx="868.42" cy="489.45" r="3" fill="#111"/>
<circle cx="871.43" cy="499.17" r="3" fill="#111"/>
<circle cx="874.43" cy="504.48" r="3" fill="#111"/>
<circle cx="877.44" cy="516.33" r="3" fill="#111"/>
<circle cx="880.45" cy="501.87" r="3" fill="#111"/>
<circle cx="883.45" cy="476.82" r="3" fill="#111"/>
<circle cx="886.46" cy="489.84" r="3" fill="#111"/>
<circle cx="889.46" cy="490.43" r="3" fill="#111"/>
<circle cx="892.47" cy="471.35" r="3" fill="#111"/>
<circle cx="895.48" cy="495.02" r="3" fill="#111"/>
<circle cx="898.48" cy="495.41" r="3" fill="#111"/>
<circle cx="901.49" cy="480.64" r="3" fill="#111"/>
<circle cx="904.49" cy="516.38" r="3" fill="#111"/>
<circle cx="907.50" cy="504.93" r="3" fill="#111"/>
<circle cx="910.51" cy="485.32" r="3" fill="#111"/>
<circle cx="913.51" cy="519.66" r="3" fill="#111"/>
<circle cx="916.52" cy="511.99" r="3" fill="#111"/>
<circle cx="919.52" cy="500.58" r="3" fill="#111"/>
<circle cx="922.53" cy="503.82" r="3" fill="#111"/>
<circle cx="925.54" cy="507.40" r="3" fill="#111"/>
<circle cx="928.54" cy="520.83" r="3" fill="#111"/>
<circle cx="931.55" cy="522.81" r="3" fill="#111"/>
<circle cx="934.55" cy="502.36" r="3" fill="#111"/>
<circle cx="937.56" cy="495.49" r="3" fill="#111"/>
<circle cx="940.57" cy="499.48" r="3" fill="#111"/>
<circle cx="943.57" cy="490.44" r="3" fill="#111"/>
<circle cx="946.58" cy="496.89" r="3" fill="#111"/>
<circle cx="949.58" cy="494.51" r="3" fill="#111"/>
<circle cx="952.59" cy="489.24" r="3" fill="#111"/>
<circle cx="955.60" cy="509.54" r="3" fill="#111"/>
<circle cx="958.60" cy="503.26" r="3" fill="#111"/>
<circle cx="961.61" cy="499.71" r="3" fill="#111"/>
<circle cx="964.61" cy="477.63" r="3" fill="#111"/>
<circle cx="967.62" cy="507.46" r="3" fill="#111"/>
<circle cx="970.62" cy="494.47" r="3" fill="#111"/>
<circle cx="973.63" cy="491.94" r="3" fill="#111"/>
<circle cx="976.64" cy="490.56" r="3" fill="#111"/>
<circle cx="979.64" cy="497.62" r="3" fill="#111"/>
<circle cx="982.65" cy="489.43" r="3" fill="#111"/>
<circle cx="985.65" cy="514.95" r="3" fill="#111"/>
<circle cx="988.66" cy="426.73" r="3" fill="#111"/>
<circle cx="991.67" cy="478.30" r="3" fill="#111"/>
<circle cx="994.67" cy="488.10" r="3" fill="#111"/>
<circle cx="997.68" cy="490.52" r="3" fill="#111"/>
<circle cx="1000.68" cy="497.43" r="3" fill="#111"/>
<circle cx="1003.69" cy="513.41" r="3" fill="#111"/>
<circle cx="1006.70" cy="509.38" r="3" fill="#111"/>
<circle cx="1009.70" cy="509.07" r="3" fill="#111"/>
<circle cx="1012.71" cy="495.06" r="3" fill="#111"/>
<circle cx="1015.71" cy="498.39" r="3" fill="#111"/>
<circle cx="1018.72" cy="494.84" r="3" fill="#111"/>
<circle cx="1021.73" cy="512.69" r="3" fill="#111"/>
<circle cx="1024.73" cy="497.65" r="3" fill="#111"/>
<circle cx="1027.74" cy="517.00" r="3" fill="#111"/>
<circle cx="1030.74" cy="520.70" r="3" fill="#111"/>
<circle cx="1033.75" cy="522.21" r="3" fill="#111"/>
<circle cx="1036.76" cy="498.87" r="3" fill="#111"/>
<circle cx="1039.76" cy="520.36" r="3" fill="#111"/>
<circle cx="1042.77" cy="515.73" r="3" fill="#111"/>
<circle cx="1045.77" cy="527.72" r="3" fill="#111"/>
<circle cx="1048.78" cy="498.78" r="3" fill="#111"/>
<circle cx="1051.79" cy="496.19" r="3" fill="#111"/>
<circle cx="1054.79" cy="515.78" r="3" fill="#111"/>
<circle cx="1057.80" cy="519.99" r="3" fill="#111"/>
<circle cx="1060.80" cy="507.43" r="3" fill="#111"/>
<circle cx="1063.81" cy="513.45" r="3" fill="#111"/>
<circle cx="1066.82" cy="522.82" r="3" fill="#111"/>
<circle cx="1069.82" cy="522.53" r="3" fill="#111"/>
<circle cx="1072.83" cy="520.49" r="3" fill="#111"/>
<circle cx="1075.83" cy="503.99" r="3" fill="#111"/>
<circle cx="1078.84" cy="504.12" r="3" fill="#111"/>
<circle cx="1081.85" cy="493.65" r="3" fill="#111"/>
<circle cx="1084.85" cy="519.93" r="3" fill="#111"/>
<circle cx="1087.86" cy="495.07" r="3" fill="#111"/>
<circle cx="1090.86" cy="488.64" r="3" fill="#111"/>
<circle cx="1093.87" cy="492.76" r="3" fill="#111"/>
<circle cx="1096.88" cy="505.77" r="3" fill="#111"/>
<circle cx="1099.88" cy="494.96" r="3" fill="#111"/>
<circle cx="1102.89" cy="458.91" r="3" fill="#111"/>
<circle cx="1105.89" cy="457.26" r="3" fill="#111"/>
<circle cx="1108.90" cy="472.55" r="3" fill="#111"/>
<circle cx="1111.90" cy="490.22" r="3" fill="#111"/>
<circle cx="1114.91" cy="477.48" r="3" fill="#111"/>
<circle cx="1117.92" cy="477.34" r="3" fill="#111"/>
<circle cx="1120.92" cy="471.01" r="3" fill="#111"/>
<circle cx="1123.93" cy="459.10" r="3" fill="#111"/>
<circle cx="1126.93" cy="465.82" r="3" fill="#111"/>
<circle cx="1129.94" cy="464.31" r="3" fill="#111"/>
<circle cx="1132.95" cy="467.42" r="3" fill="#111"/>
<circle cx="1135.95" cy="477.27" r="3" fill="#111"/>
<circle cx="1138.96" cy="479.72" r="3" fill="#111"/>
<circle cx="1141.96" cy="489.27" r="3" fill="#111"/>
<circle cx="1144.97" cy="476.08" r="3" fill="#111"/>
<circle cx="1147.98" cy="475.14" r="3" fill="#111"/>
<circle cx="1150.98" cy="484.13" r="3" fill="#111"/>
<circle cx="1153.99" cy="480.61" r="3" fill="#111"/>
<circle cx="1156.99" cy="484.12" r="3" fill="#111"/>
<circle cx="1160.00" cy="474.82" r="3" fill="#111"/>
<path d="M655.00,491.27 L658.01,499.63 L661.01,498.29 L664.02,510.65 L667.02,490.94 L670.03,505.06 L673.04,506.01 L676.04,490.80 L679.05,489.63 L682.05,470.60 L685.06,488.64 L688.07,493.30 L691.07,502.08 L694.08,505.05 L697.08,473.37 L700.09,484.15 L703.10,465.16 L706.10,487.29 L709.11,482.26 L712.11,484.64 L715.12,483.22 L718.12,492.11 L721.13,490.54 L724.14,459.80 L727.14,492.60 L730.15,472.37 L733.15,473.18 L736.16,479.47 L739.17,485.69 L742.17,473.00 L745.18,487.37 L748.18,497.05 L751.19,494.63 L754.20,500.49 L757.20,473.64 L760.21,489.25 L763.21,495.30 L766.22,497.00 L769.23,509.64 L772.23,487.62 L775.24,493.43 L778.24,494.00 L781.25,485.06 L784.26,478.08 L787.26,486.48 L790.27,472.07 L793.27,489.53 L796.28,493.90 L799.29,503.93 L802.29,479.92 L805.30,491.79 L808.30,504.48 L811.31,472.79 L814.32,495.60 L817.32,491.81 L820.33,492.07 L823.33,489.43 L826.34,483.87 L829.35,495.79 L832.35,508.25 L835.36,496.88 L838.36,500.54 L841.37,500.31 L844.38,491.48 L847.38,511.37 L850.39,493.95 L853.39,490.40 L856.40,508.28 L859.40,508.14 L862.41,503.40 L865.42,512.34 L868.42,489.45 L871.43,499.17 L874.43,504.48 L877.44,516.33 L880.45,501.87 L883.45,476.82 L886.46,489.84 L889.46,490.43 L892.47,471.35 L895.48,495.02 L898.48,495.41 L901.49,480.64 L904.49,516.38 L907.50,504.93 L910.51,485.32 L913.51,519.66 L916.52,511.99 L919.52,500.58 L922.53,503.82 L925.54,507.40 L928.54,520.83 L931.55,522.81 L934.55,502.36 L937.56,495.49 L940.57,499.48 L943.57,490.44 L946.58,496.89 L949.58,494.51 L952.59,489.24 L955.60,509.54 L958.60,503.26 L961.61,499.71 L964.61,477.63 L967.62,507.46 L970.62,494.47 L973.63,491.94 L976.64,490.56 L979.64,497.62 L982.65,489.43 L985.65,514.95 L988.66,426.73 L991.67,478.30 L994.67,488.10 L997.68,490.52 L1000.68,497.43 L1003.69,513.41 L1006.70,509.38 L1009.70,509.07 L1012.71,495.06 L1015.71,498.39 L1018.72,494.84 L1021.73,512.69 L1024.73,497.65 L1027.74,517.00 L1030.74,520.70 L1033.75,522.21 L1036.76,498.87 L1039.76,520.36 L1042.77,515.73 L1045.77,527.72 L1048.78,498.78 L1051.79,496.19 L1054.79,515.78 L1057.80,519.99 L1060.80,507.43 L1063.81,513.45 L1066.82,522.82 L1069.82,522.53 L1072.83,520.49 L1075.83,503.99 L1078.84,504.12 L1081.85,493.65 L1084.85,519.93 L1087.86,495.07 L1090.86,488.64 L1093.87,492.76 L1096.88,505.77 L1099.88,494.96 L1102.89,458.91 L1105.89,457.26 L1108.90,472.55 L1111.90,490.22 L1114.91,477.48 L1117.92,477.34 L1120.92,471.01 L1123.93,459.10 L1126.93,465.82 L1129.94,464.31 L1132.95,467.42 L1135.95,477.27 L1138.96,479.72 L1141.96,489.27 L1144.97,476.08 L1147.98,475.14 L1150.98,484.13 L1153.99,480.61 L1156.99,484.12 L1160.00,474.82" fill="none" stroke="#111" stroke-width="2.5" stroke-dasharray=""/>
<circle cx="655.00" cy="449.23" r="3" fill="#b5222c"/>
<circle cx="658.01" cy="474.40" r="3" fill="#b5222c"/>
<circle cx="661.01" cy="507.75" r="3" fill="#b5222c"/>
<circle cx="664.02" cy="499.34" r="3" fill="#b5222c"/>
<circle cx="667.02" cy="497.74" r="3" fill="#b5222c"/>
<circle cx="670.03" cy="502.57" r="3" fill="#b5222c"/>
<circle cx="673.04" cy="514.67" r="3" fill="#b5222c"/>
<circle cx="676.04" cy="491.84" r="3" fill="#b5222c"/>
<circle cx="679.05" cy="472.85" r="3" fill="#b5222c"/>
<circle cx="682.05" cy="444.33" r="3" fill="#b5222c"/>
<circle cx="685.06" cy="465.30" r="3" fill="#b5222c"/>
<circle cx="688.07" cy="479.31" r="3" fill="#b5222c"/>
<circle cx="691.07" cy="492.49" r="3" fill="#b5222c"/>
<circle cx="694.08" cy="506.93" r="3" fill="#b5222c"/>
<circle cx="697.08" cy="439.40" r="3" fill="#b5222c"/>
<circle cx="700.09" cy="460.94" r="3" fill="#b5222c"/>
<circle cx="703.10" cy="448.77" r="3" fill="#b5222c"/>
<circle cx="706.10" cy="487.36" r="3" fill="#b5222c"/>
<circle cx="709.11" cy="472.33" r="3" fill="#b5222c"/>
<circle cx="712.11" cy="507.52" r="3" fill="#b5222c"/>
<circle cx="715.12" cy="508.09" r="3" fill="#b5222c"/>
<circle cx="718.12" cy="493.02" r="3" fill="#b5222c"/>
<circle cx="721.13" cy="476.38" r="3" fill="#b5222c"/>
<circle cx="724.14" cy="460.51" r="3" fill="#b5222c"/>
<circle cx="727.14" cy="459.00" r="3" fill="#b5222c"/>
<circle cx="730.15" cy="439.27" r="3" fill="#b5222c"/>
<circle cx="733.15" cy="456.01" r="3" fill="#b5222c"/>
<circle cx="736.16" cy="479.03" r="3" fill="#b5222c"/>
<circle cx="739.17" cy="483.76" r="3" fill="#b5222c"/>
<circle cx="742.17" cy="453.70" r="3" fill="#b5222c"/>
<circle cx="745.18" cy="465.62" r="3" fill="#b5222c"/>
<circle cx="748.18" cy="493.83" r="3" fill="#b5222c"/>
<circle cx="751.19" cy="485.13" r="3" fill="#b5222c"/>
<circle cx="754.20" cy="472.84" r="3" fill="#b5222c"/>
<circle cx="757.20" cy="470.94" r="3" fill="#b5222c"/>
<circle cx="760.21" cy="449.46" r="3" fill="#b5222c"/>
<circle cx="763.21" cy="473.60" r="3" fill="#b5222c"/>
<circle cx="766.22" cy="474.76" r="3" fill="#b5222c"/>
<circle cx="769.23" cy="506.92" r="3" fill="#b5222c"/>
<circle cx="772.23" cy="448.06" r="3" fill="#b5222c"/>
<circle cx="775.24" cy="472.36" r="3" fill="#b5222c"/>
<circle cx="778.24" cy="484.65" r="3" fill="#b5222c"/>
<circle cx="781.25" cy="445.12" r="3" fill="#b5222c"/>
<circle cx="784.26" cy="469.61" r="3" fill="#b5222c"/>
<circle cx="787.26" cy="459.88" r="3" fill="#b5222c"/>
<circle cx="790.27" cy="488.10" r="3" fill="#b5222c"/>
<circle cx="793.27" cy="520.95" r="3" fill="#b5222c"/>
<circle cx="796.28" cy="459.48" r="3" fill="#b5222c"/>
<circle cx="799.29" cy="505.85" r="3" fill="#b5222c"/>
<circle cx="802.29" cy="443.12" r="3" fill="#b5222c"/>
<circle cx="805.30" cy="493.72" r="3" fill="#b5222c"/>
<circle cx="808.30" cy="501.69" r="3" fill="#b5222c"/>
<circle cx="811.31" cy="443.69" r="3" fill="#b5222c"/>
<circle cx="814.32" cy="469.25" r="3" fill="#b5222c"/>
<circle cx="817.32" cy="486.77" r="3" fill="#b5222c"/>
<circle cx="820.33" cy="465.92" r="3" fill="#b5222c"/>
<circle cx="823.33" cy="461.28" r="3" fill="#b5222c"/>
<circle cx="826.34" cy="475.91" r="3" fill="#b5222c"/>
<circle cx="829.35" cy="482.09" r="3" fill="#b5222c"/>
<circle cx="832.35" cy="502.32" r="3" fill="#b5222c"/>
<circle cx="835.36" cy="538.27" r="3" fill="#b5222c"/>
<circle cx="838.36" cy="499.13" r="3" fill="#b5222c"/>
<circle cx="841.37" cy="465.31" r="3" fill="#b5222c"/>
<circle cx="844.38" cy="491.57" r="3" fill="#b5222c"/>
<circle cx="847.38" cy="486.55" r="3" fill="#b5222c"/>
<circle cx="850.39" cy="489.92" r="3" fill="#b5222c"/>
<circle cx="853.39" cy="503.81" r="3" fill="#b5222c"/>
<circle cx="856.40" cy="501.73" r="3" fill="#b5222c"/>
<circle cx="859.40" cy="516.70" r="3" fill="#b5222c"/>
<circle cx="862.41" cy="521.75" r="3" fill="#b5222c"/>
<circle cx="865.42" cy="501.15" r="3" fill="#b5222c"/>
<circle cx="868.42" cy="460.12" r="3" fill="#b5222c"/>
<circle cx="871.43" cy="483.88" r="3" fill="#b5222c"/>
<circle cx="874.43" cy="496.01" r="3" fill="#b5222c"/>
<circle cx="877.44" cy="496.41" r="3" fill="#b5222c"/>
<circle cx="880.45" cy="499.51" r="3" fill="#b5222c"/>
<circle cx="883.45" cy="494.91" r="3" fill="#b5222c"/>
<circle cx="886.46" cy="456.37" r="3" fill="#b5222c"/>
<circle cx="889.46" cy="480.14" r="3" fill="#b5222c"/>
<circle cx="892.47" cy="481.51" r="3" fill="#b5222c"/>
<circle cx="895.48" cy="490.13" r="3" fill="#b5222c"/>
<circle cx="898.48" cy="476.15" r="3" fill="#b5222c"/>
<circle cx="901.49" cy="497.17" r="3" fill="#b5222c"/>
<circle cx="904.49" cy="501.37" r="3" fill="#b5222c"/>
<circle cx="907.50" cy="472.61" r="3" fill="#b5222c"/>
<circle cx="910.51" cy="537.57" r="3" fill="#b5222c"/>
<circle cx="913.51" cy="482.59" r="3" fill="#b5222c"/>
<circle cx="916.52" cy="506.54" r="3" fill="#b5222c"/>
<circle cx="919.52" cy="465.98" r="3" fill="#b5222c"/>
<circle cx="922.53" cy="503.13" r="3" fill="#b5222c"/>
<circle cx="925.54" cy="492.73" r="3" fill="#b5222c"/>
<circle cx="928.54" cy="501.97" r="3" fill="#b5222c"/>
<circle cx="931.55" cy="469.49" r="3" fill="#b5222c"/>
<circle cx="934.55" cy="478.80" r="3" fill="#b5222c"/>
<circle cx="937.56" cy="479.74" r="3" fill="#b5222c"/>
<circle cx="940.57" cy="486.42" r="3" fill="#b5222c"/>
<circle cx="943.57" cy="479.98" r="3" fill="#b5222c"/>
<circle cx="946.58" cy="503.14" r="3" fill="#b5222c"/>
<circle cx="949.58" cy="465.80" r="3" fill="#b5222c"/>
<circle cx="952.59" cy="466.88" r="3" fill="#b5222c"/>
<circle cx="955.60" cy="450.38" r="3" fill="#b5222c"/>
<circle cx="958.60" cy="465.47" r="3" fill="#b5222c"/>
<circle cx="961.61" cy="469.41" r="3" fill="#b5222c"/>
<circle cx="964.61" cy="473.65" r="3" fill="#b5222c"/>
<circle cx="967.62" cy="505.88" r="3" fill="#b5222c"/>
<circle cx="970.62" cy="486.91" r="3" fill="#b5222c"/>
<circle cx="973.63" cy="451.16" r="3" fill="#b5222c"/>
<circle cx="976.64" cy="483.42" r="3" fill="#b5222c"/>
<circle cx="979.64" cy="480.28" r="3" fill="#b5222c"/>
<circle cx="982.65" cy="478.45" r="3" fill="#b5222c"/>
<circle cx="985.65" cy="457.04" r="3" fill="#b5222c"/>
<circle cx="988.66" cy="469.38" r="3" fill="#b5222c"/>
<circle cx="991.67" cy="473.19" r="3" fill="#b5222c"/>
<circle cx="994.67" cy="464.17" r="3" fill="#b5222c"/>
<circle cx="997.68" cy="457.42" r="3" fill="#b5222c"/>
<circle cx="1000.68" cy="504.13" r="3" fill="#b5222c"/>
<circle cx="1003.69" cy="502.26" r="3" fill="#b5222c"/>
<circle cx="1006.70" cy="501.33" r="3" fill="#b5222c"/>
<circle cx="1009.70" cy="467.73" r="3" fill="#b5222c"/>
<circle cx="1012.71" cy="454.75" r="3" fill="#b5222c"/>
<circle cx="1015.71" cy="471.70" r="3" fill="#b5222c"/>
<circle cx="1018.72" cy="481.52" r="3" fill="#b5222c"/>
<circle cx="1021.73" cy="491.77" r="3" fill="#b5222c"/>
<circle cx="1024.73" cy="478.26" r="3" fill="#b5222c"/>
<circle cx="1027.74" cy="468.00" r="3" fill="#b5222c"/>
<circle cx="1030.74" cy="487.35" r="3" fill="#b5222c"/>
<circle cx="1033.75" cy="475.79" r="3" fill="#b5222c"/>
<circle cx="1036.76" cy="478.45" r="3" fill="#b5222c"/>
<circle cx="1039.76" cy="471.17" r="3" fill="#b5222c"/>
<circle cx="1042.77" cy="454.19" r="3" fill="#b5222c"/>
<circle cx="1045.77" cy="530.25" r="3" fill="#b5222c"/>
<circle cx="1048.78" cy="477.52" r="3" fill="#b5222c"/>
<circle cx="1051.79" cy="437.80" r="3" fill="#b5222c"/>
<circle cx="1054.79" cy="482.88" r="3" fill="#b5222c"/>
<circle cx="1057.80" cy="485.36" r="3" fill="#b5222c"/>
<circle cx="1060.80" cy="483.75" r="3" fill="#b5222c"/>
<circle cx="1063.81" cy="467.50" r="3" fill="#b5222c"/>
<circle cx="1066.82" cy="475.88" r="3" fill="#b5222c"/>
<circle cx="1069.82" cy="500.10" r="3" fill="#b5222c"/>
<circle cx="1072.83" cy="508.01" r="3" fill="#b5222c"/>
<circle cx="1075.83" cy="481.93" r="3" fill="#b5222c"/>
<circle cx="1078.84" cy="482.32" r="3" fill="#b5222c"/>
<circle cx="1081.85" cy="484.55" r="3" fill="#b5222c"/>
<circle cx="1084.85" cy="502.73" r="3" fill="#b5222c"/>
<circle cx="1087.86" cy="488.36" r="3" fill="#b5222c"/>
<circle cx="1090.86" cy="494.49" r="3" fill="#b5222c"/>
<circle cx="1093.87" cy="484.94" r="3" fill="#b5222c"/>
<circle cx="1096.88" cy="501.75" r="3" fill="#b5222c"/>
<circle cx="1099.88" cy="477.57" r="3" fill="#b5222c"/>
<circle cx="1102.89" cy="469.25" r="3" fill="#b5222c"/>
<circle cx="1105.89" cy="448.02" r="3" fill="#b5222c"/>
<circle cx="1108.90" cy="504.54" r="3" fill="#b5222c"/>
<circle cx="1111.90" cy="495.51" r="3" fill="#b5222c"/>
<circle cx="1114.91" cy="464.58" r="3" fill="#b5222c"/>
<circle cx="1117.92" cy="450.35" r="3" fill="#b5222c"/>
<circle cx="1120.92" cy="465.80" r="3" fill="#b5222c"/>
<circle cx="1123.93" cy="460.79" r="3" fill="#b5222c"/>
<circle cx="1126.93" cy="451.07" r="3" fill="#b5222c"/>
<circle cx="1129.94" cy="453.57" r="3" fill="#b5222c"/>
<circle cx="1132.95" cy="452.51" r="3" fill="#b5222c"/>
<circle cx="1135.95" cy="479.91" r="3" fill="#b5222c"/>
<circle cx="1138.96" cy="476.29" r="3" fill="#b5222c"/>
<circle cx="1141.96" cy="521.25" r="3" fill="#b5222c"/>
<circle cx="1144.97" cy="460.65" r="3" fill="#b5222c"/>
<circle cx="1147.98" cy="466.58" r="3" fill="#b5222c"/>
<circle cx="1150.98" cy="476.38" r="3" fill="#b5222c"/>
<circle cx="1153.99" cy="474.11" r="3" fill="#b5222c"/>
<circle cx="1156.99" cy="478.43" r="3" fill="#b5222c"/>
<circle cx="1160.00" cy="483.11" r="3" fill="#b5222c"/>
<path d="M655.00,449.23 L658.01,474.40 L661.01,507.75 L664.02,499.34 L667.02,497.74 L670.03,502.57 L673.04,514.67 L676.04,491.84 L679.05,472.85 L682.05,444.33 L685.06,465.30 L688.07,479.31 L691.07,492.49 L694.08,506.93 L697.08,439.40 L700.09,460.94 L703.10,448.77 L706.10,487.36 L709.11,472.33 L712.11,507.52 L715.12,508.09 L718.12,493.02 L721.13,476.38 L724.14,460.51 L727.14,459.00 L730.15,439.27 L733.15,456.01 L736.16,479.03 L739.17,483.76 L742.17,453.70 L745.18,465.62 L748.18,493.83 L751.19,485.13 L754.20,472.84 L757.20,470.94 L760.21,449.46 L763.21,473.60 L766.22,474.76 L769.23,506.92 L772.23,448.06 L775.24,472.36 L778.24,484.65 L781.25,445.12 L784.26,469.61 L787.26,459.88 L790.27,488.10 L793.27,520.95 L796.28,459.48 L799.29,505.85 L802.29,443.12 L805.30,493.72 L808.30,501.69 L811.31,443.69 L814.32,469.25 L817.32,486.77 L820.33,465.92 L823.33,461.28 L826.34,475.91 L829.35,482.09 L832.35,502.32 L835.36,538.27 L838.36,499.13 L841.37,465.31 L844.38,491.57 L847.38,486.55 L850.39,489.92 L853.39,503.81 L856.40,501.73 L859.40,516.70 L862.41,521.75 L865.42,501.15 L868.42,460.12 L871.43,483.88 L874.43,496.01 L877.44,496.41 L880.45,499.51 L883.45,494.91 L886.46,456.37 L889.46,480.14 L892.47,481.51 L895.48,490.13 L898.48,476.15 L901.49,497.17 L904.49,501.37 L907.50,472.61 L910.51,537.57 L913.51,482.59 L916.52,506.54 L919.52,465.98 L922.53,503.13 L925.54,492.73 L928.54,501.97 L931.55,469.49 L934.55,478.80 L937.56,479.74 L940.57,486.42 L943.57,479.98 L946.58,503.14 L949.58,465.80 L952.59,466.88 L955.60,450.38 L958.60,465.47 L961.61,469.41 L964.61,473.65 L967.62,505.88 L970.62,486.91 L973.63,451.16 L976.64,483.42 L979.64,480.28 L982.65,478.45 L985.65,457.04 L988.66,469.38 L991.67,473.19 L994.67,464.17 L997.68,457.42 L1000.68,504.13 L1003.69,502.26 L1006.70,501.33 L1009.70,467.73 L1012.71,454.75 L1015.71,471.70 L1018.72,481.52 L1021.73,491.77 L1024.73,478.26 L1027.74,468.00 L1030.74,487.35 L1033.75,475.79 L1036.76,478.45 L1039.76,471.17 L1042.77,454.19 L1045.77,530.25 L1048.78,477.52 L1051.79,437.80 L1054.79,482.88 L1057.80,485.36 L1060.80,483.75 L1063.81,467.50 L1066.82,475.88 L1069.82,500.10 L1072.83,508.01 L1075.83,481.93 L1078.84,482.32 L1081.85,484.55 L1084.85,502.73 L1087.86,488.36 L1090.86,494.49 L1093.87,484.94 L1096.88,501.75 L1099.88,477.57 L1102.89,469.25 L1105.89,448.02 L1108.90,504.54 L1111.90,495.51 L1114.91,464.58 L1117.92,450.35 L1120.92,465.80 L1123.93,460.79 L1126.93,451.07 L1129.94,453.57 L1132.95,452.51 L1135.95,479.91 L1138.96,476.29 L1141.96,521.25 L1144.97,460.65 L1147.98,466.58 L1150.98,476.38 L1153.99,474.11 L1156.99,478.43 L1160.00,483.11" fill="none" stroke="#b5222c" stroke-width="2.5" stroke-dasharray="6 4"/>
<text x="655.00" y="578" text-anchor="middle" font-size="12">491,520</text>
<text x="1160.00" y="578" text-anchor="middle" font-size="12">663,552</text>
<text x="907.5" y="598" text-anchor="middle" font-size="12">Verified tasks at evaluation end</text>
<text x="38" y="679" font-size="15">Y: reduction in mean absolute log1p error versus proof-aware context baseline. Above zero = lower error.</text>
<text x="38" y="706" font-size="15">Historical backfills are retrospective. Better predictions do not establish better discovery odds.</text></g></svg>