<svg xmlns="http://www.w3.org/2000/svg" width="1200" height="730" viewBox="0 0 1200 730" role="img" aria-labelledby="title desc">
<title id="title">Spatial challenger: prediction error across frozen evaluations</title>
<desc id="desc">Percentage error reduction relative to the context baseline. Positive is better. Black is later submitted tasks; red dashed is unseen geometry. This measures predictions, not discovery odds.</desc>
<rect width="1200" height="730" fill="white"/>
<g font-family="Arial,Helvetica,sans-serif" fill="#111">
<text x="38" y="45" font-size="27">Is the challenger learning?</text>
<text x="38" y="76" font-size="16">258 frozen evaluations · 265,216 training-boundary tasks · SHADOW: no production influence</text>
<path d="M38 105h30" stroke="#111" stroke-width="3"/><text x="78" y="111" font-size="15">Later submitted tasks</text>
<path d="M320 105h30" stroke="#b5222c" stroke-width="3" stroke-dasharray="6 4"/><text x="360" y="111" font-size="15">Unseen geometry</text>
<text x="65" y="145" font-size="19">Server CPU cost</text>
<path d="M65 310.00h505" stroke="#ddd"/><text x="56" y="315.00" text-anchor="end" font-size="12">-2.4%</text>
<path d="M65 293.27h505" stroke="#ddd"/><text x="56" y="298.27" text-anchor="end" font-size="12">0.0%</text>
<path d="M65 165.00h505" stroke="#ddd"/><text x="56" y="170.00" text-anchor="end" font-size="12">18.8%</text>
<polyline points="65.00,292.17 66.96,289.08 68.93,287.67 70.89,288.49 72.86,286.17 74.82,284.62 76.79,284.97 78.75,283.55 80.72,283.14 82.68,280.80 84.65,280.32 86.61,282.36 88.58,277.71 90.54,277.64 92.51,277.99 94.47,276.21 96.44,274.90 98.40,276.01 100.37,273.71 102.33,269.46 104.30,272.64 106.26,272.84 108.23,270.81 110.19,272.21 112.16,268.24 114.12,271.74 116.09,270.71 118.05,273.19 120.02,274.58 121.98,275.34 123.95,271.64 125.91,271.65 127.88,271.85 129.84,272.92 131.81,271.66 133.77,271.35 135.74,270.01 137.70,265.55 139.67,267.45 141.63,267.23 143.60,266.98 145.56,263.33 147.53,267.96 149.49,259.83 151.46,259.97 153.42,257.08 155.39,259.84 157.35,257.21 159.32,256.83 161.28,257.92 163.25,258.19 165.21,256.61 167.18,259.95 169.14,256.45 171.11,254.19 173.07,254.44 175.04,253.70 177.00,253.40 178.97,257.49 180.93,245.08 182.90,249.36 184.86,253.48 186.83,247.97 188.79,252.63 190.76,244.33 192.72,252.07 194.69,250.02 196.65,250.76 198.62,247.71 200.58,249.44 202.55,251.86 204.51,245.16 206.48,245.75 208.44,244.18 210.41,244.74 212.37,236.25 214.34,243.34 216.30,243.84 218.27,239.74 220.23,242.14 222.20,240.61 224.16,238.44 226.13,245.40 228.09,234.08 230.06,237.45 232.02,243.01 233.99,239.65 235.95,227.44 237.92,239.38 239.88,236.56 241.85,233.19 243.81,226.68 245.78,238.44 247.74,236.27 249.71,232.80 251.67,234.86 253.64,237.45 255.60,231.87 257.57,222.13 259.53,236.08 261.50,238.92 263.46,225.39 265.43,232.04 267.39,236.54 269.36,227.00 271.32,229.23 273.29,233.59 275.25,224.42 277.22,226.37 279.18,233.90 281.15,224.69 283.11,228.94 285.08,227.85 287.04,222.78 289.01,223.46 290.97,229.49 292.94,224.36 294.90,225.91 296.87,229.79 298.83,225.67 300.80,228.62 302.76,228.18 304.73,228.64 306.69,227.57 308.66,236.03 310.62,228.75 312.59,217.68 314.55,212.61 316.52,221.24 318.48,230.13 320.45,216.82 322.41,221.51 324.38,226.60 326.34,222.12 328.31,222.41 330.27,217.94 332.24,226.52 334.20,212.83 336.17,220.39 338.13,219.00 340.10,217.39 342.06,221.87 344.03,215.88 345.99,219.68 347.96,211.09 349.92,216.08 351.89,220.04 353.85,216.72 355.82,219.85 357.78,215.28 359.75,222.80 361.71,225.76 363.68,210.91 365.64,214.33 367.61,213.06 369.57,218.03 371.54,218.90 373.50,201.38 375.47,203.02 377.43,208.12 379.40,215.40 381.36,208.04 383.33,217.05 385.29,212.97 387.26,206.34 389.22,205.19 391.19,217.82 393.15,219.21 395.12,208.46 397.08,218.38 399.05,204.57 401.01,200.03 402.98,205.57 404.94,206.14 406.91,213.61 408.87,210.22 410.84,200.16 412.80,207.42 414.77,199.00 416.73,204.87 418.70,205.06 420.66,206.03 422.63,198.04 424.59,208.25 426.56,200.99 428.52,205.18 430.49,209.92 432.45,214.27 434.42,199.76 436.38,206.61 438.35,203.99 440.31,199.83 442.28,204.98 444.24,209.06 446.21,198.09 448.17,212.92 450.14,207.55 452.10,206.04 454.07,199.88 456.03,213.65 458.00,207.62 459.96,202.13 461.93,211.33 463.89,201.65 465.86,194.54 467.82,204.18 469.79,200.90 471.75,206.19 473.72,197.73 475.68,193.53 477.65,205.43 479.61,203.56 481.58,193.42 483.54,203.43 485.51,200.96 487.47,201.05 489.44,195.50 491.40,197.51 493.37,205.29 495.33,194.34 497.30,196.94 499.26,196.34 501.23,208.92 503.19,197.81 505.16,192.86 507.12,193.14 509.09,193.36 511.05,198.14 513.02,209.71 514.98,196.73 516.95,198.66 518.91,194.74 520.88,209.54 522.84,206.94 524.81,195.75 526.77,206.02 528.74,210.97 530.70,201.05 532.67,201.02 534.63,188.51 536.60,195.19 538.56,191.77 540.53,206.43 542.49,194.11 544.46,189.40 546.42,200.72 548.39,205.51 550.35,194.46 552.32,207.08 554.28,187.19 556.25,201.11 558.21,206.35 560.18,200.11 562.14,185.82 564.11,181.73 566.07,202.32 568.04,199.05 570.00,191.96" fill="none" stroke="#111" stroke-width="2.5" stroke-dasharray=""/>
<polyline points="65.00,293.27 66.96,293.27 68.93,293.27 70.89,293.27 72.86,293.27 74.82,293.27 76.79,293.27 78.75,293.27 80.72,293.27 82.68,293.27 84.65,293.27 86.61,293.27 88.58,293.27 90.54,293.27 92.51,293.27 94.47,293.27 96.44,293.27 98.40,293.27 100.37,293.27 102.33,293.27 104.30,293.27 106.26,293.27 108.23,293.27 110.19,293.27 112.16,293.27 114.12,293.27 116.09,293.27 118.05,293.27 120.02,293.27 121.98,293.27 123.95,293.27 125.91,293.27 127.88,293.27 129.84,293.27 131.81,293.27 133.77,293.27 135.74,293.27 137.70,293.27 139.67,293.27 141.63,293.27 143.60,293.27 145.56,293.27 147.53,293.27 149.49,293.27 151.46,293.27 153.42,293.27 155.39,293.27 157.35,293.27 159.32,293.27 161.28,293.27 163.25,293.27 165.21,293.27 167.18,293.27 169.14,293.27 171.11,293.27 173.07,293.27 175.04,293.27 177.00,293.27 178.97,293.27 180.93,293.27 182.90,293.27 184.86,293.27 186.83,293.27 188.79,293.27 190.76,293.27 192.72,293.27 194.69,293.27 196.65,293.27 198.62,293.27 200.58,293.27 202.55,293.27 204.51,293.27 206.48,293.27 208.44,293.27 210.41,293.27 212.37,293.27 214.34,293.27 216.30,293.27 218.27,293.27 220.23,293.27 222.20,293.27 224.16,293.27 226.13,293.27 228.09,293.27 230.06,293.27 232.02,293.27 233.99,293.27 235.95,293.27 237.92,293.27 239.88,293.27 241.85,293.27 243.81,293.27 245.78,293.27 247.74,293.27 249.71,293.27 251.67,293.27 253.64,293.27 255.60,293.27 257.57,293.27 259.53,293.27 261.50,293.27 263.46,293.27 265.43,293.27 267.39,293.27 269.36,293.27 271.32,293.27 273.29,293.27 275.25,293.27 277.22,293.27 279.18,293.27 281.15,293.27 283.11,293.27 285.08,293.27 287.04,293.27 289.01,293.27 290.97,293.27 292.94,293.27 294.90,293.27 296.87,293.27 298.83,293.27 300.80,293.27 302.76,293.27 304.73,293.27 306.69,293.27 308.66,293.27 310.62,293.27 312.59,293.27 314.55,293.27 316.52,293.27 318.48,293.27 320.45,293.27 322.41,293.27 324.38,293.27 326.34,293.27 328.31,293.27 330.27,293.27 332.24,293.27 334.20,293.27 336.17,293.27 338.13,293.27 340.10,293.27 342.06,293.27 344.03,293.27 345.99,293.27 347.96,293.27 349.92,293.27 351.89,293.27 353.85,293.27 355.82,293.27 357.78,293.27 359.75,293.27 361.71,293.27 363.68,293.27 365.64,293.27 367.61,293.27 369.57,293.27 371.54,293.27 373.50,293.27 375.47,293.27 377.43,293.27 379.40,293.27 381.36,293.27 383.33,293.27 385.29,293.27 387.26,293.27 389.22,293.27 391.19,293.27 393.15,293.27 395.12,293.27 397.08,293.27 399.05,293.27 401.01,293.27 402.98,293.27 404.94,293.27 406.91,293.27 408.87,293.27 410.84,293.27 412.80,293.27 414.77,293.27 416.73,293.27 418.70,293.27 420.66,293.27 422.63,293.27 424.59,293.27 426.56,293.27 428.52,293.27 430.49,293.27 432.45,293.27 434.42,293.27 436.38,293.27 438.35,293.27 440.31,293.27 442.28,293.27 444.24,293.27 446.21,293.27 448.17,293.27 450.14,293.27 452.10,293.27 454.07,293.27 456.03,293.27 458.00,293.27 459.96,293.27 461.93,293.27 463.89,293.27 465.86,293.27 467.82,293.27 469.79,293.27 471.75,293.27 473.72,293.27 475.68,293.27 477.65,293.27 479.61,293.27 481.58,293.27 483.54,293.27 485.51,293.27 487.47,293.27 489.44,293.27 491.40,293.27 493.37,293.27 495.33,293.27 497.30,293.27 499.26,293.27 501.23,293.27 503.19,293.27 505.16,293.27 507.12,293.27 509.09,293.27 511.05,293.27 513.02,293.27 514.98,293.27 516.95,293.27 518.91,293.27 520.88,293.27 522.84,293.27 524.81,293.27 526.77,293.27 528.74,293.27 530.70,293.27 532.67,293.27 534.63,293.27 536.60,293.27 538.56,293.27 540.53,293.27 542.49,293.27 544.46,293.27 546.42,293.27 548.39,293.27 550.35,293.27 552.32,293.27 554.28,293.27 556.25,293.27 558.21,293.27 560.18,293.27 562.14,293.27 564.11,293.27 566.07,293.27 568.04,293.27 570.00,293.27" fill="none" stroke="#b5222c" stroke-width="2.5" stroke-dasharray="6 4"/>
<text x="65.00" y="333" text-anchor="middle" font-size="12">2,048</text>
<text x="570.00" y="333" text-anchor="middle" font-size="12">265,216</text>
<text x="317.5" y="353" text-anchor="middle" font-size="12">Verified tasks at evaluation end</text>
<text x="655" y="145" font-size="19">Quotient positions</text>
<path d="M655 310.00h505" stroke="#ddd"/><text x="646" y="315.00" text-anchor="end" font-size="12">-0.8%</text>
<path d="M655 293.27h505" stroke="#ddd"/><text x="646" y="298.27" text-anchor="end" font-size="12">0.0%</text>
<path d="M655 165.00h505" stroke="#ddd"/><text x="646" y="170.00" text-anchor="end" font-size="12">6.2%</text>
<polyline points="655.00,292.38 656.96,290.75 658.93,289.68 660.89,289.68 662.86,288.58 664.82,287.34 666.79,287.41 668.75,286.53 670.72,285.44 672.68,284.79 674.65,283.74 676.61,284.57 678.58,282.93 680.54,282.49 682.51,281.82 684.47,282.13 686.44,280.57 688.40,280.93 690.37,280.06 692.33,278.50 694.30,278.71 696.26,278.63 698.23,277.80 700.19,277.86 702.16,276.14 704.12,276.63 706.09,274.61 708.05,273.02 710.02,273.88 711.98,274.75 713.95,272.56 715.91,271.87 717.88,271.70 719.84,270.70 721.81,268.42 723.77,269.12 725.74,266.51 727.70,265.81 729.67,266.60 731.63,266.59 733.60,265.10 735.56,264.69 737.53,264.73 739.49,261.54 741.46,260.66 743.42,258.64 745.39,259.97 747.35,256.67 749.32,257.53 751.28,257.72 753.25,257.04 755.21,256.74 757.18,259.40 759.14,257.18 761.11,257.54 763.07,257.63 765.04,255.31 767.00,253.61 768.97,256.23 770.93,247.56 772.90,250.93 774.86,254.52 776.83,250.23 778.79,253.32 780.76,248.88 782.72,251.71 784.69,249.34 786.65,251.46 788.62,248.09 790.58,252.04 792.55,252.44 794.51,246.68 796.48,247.47 798.44,245.85 800.41,248.61 802.37,241.97 804.34,246.41 806.30,247.68 808.27,243.04 810.23,244.24 812.20,242.31 814.16,242.66 816.13,245.59 818.09,240.41 820.06,242.20 822.02,244.82 823.99,243.58 825.95,234.02 827.92,243.96 829.88,240.34 831.85,239.27 833.81,234.76 835.78,242.58 837.74,239.88 839.71,237.12 841.67,240.97 843.64,238.35 845.60,235.67 847.57,227.83 849.53,239.64 851.50,239.33 853.46,229.18 855.43,235.66 857.39,240.05 859.36,229.98 861.32,232.56 863.29,238.41 865.25,230.62 867.22,229.79 869.18,237.13 871.15,229.42 873.11,234.09 875.08,232.52 877.04,227.58 879.01,228.79 880.97,234.05 882.94,230.45 884.90,231.91 886.87,233.94 888.83,231.89 890.80,234.36 892.76,233.22 894.73,232.62 896.69,229.19 898.66,236.96 900.62,230.62 902.59,225.39 904.55,218.71 906.52,225.60 908.48,232.40 910.45,219.37 912.41,226.27 914.38,230.35 916.34,225.10 918.31,225.91 920.27,223.70 922.24,229.63 924.20,220.32 926.17,226.41 928.13,221.52 930.10,223.23 932.06,227.55 934.03,223.92 935.99,224.00 937.96,214.67 939.92,219.30 941.89,217.38 943.85,219.20 945.82,223.49 947.78,220.32 949.75,224.22 951.71,226.50 953.68,216.58 955.64,220.68 957.61,218.00 959.57,221.04 961.54,222.42 963.50,209.29 965.47,207.45 967.43,213.66 969.40,218.86 971.36,213.66 973.33,218.85 975.29,216.97 977.26,212.18 979.22,210.27 981.19,222.32 983.15,223.10 985.12,215.38 987.08,220.83 989.05,210.35 991.01,205.85 992.98,210.86 994.94,212.02 996.91,215.24 998.87,211.59 1000.84,208.22 1002.80,212.35 1004.77,205.74 1006.73,208.64 1008.70,207.35 1010.66,208.84 1012.63,200.99 1014.59,210.25 1016.56,207.16 1018.52,209.46 1020.49,213.74 1022.45,217.29 1024.42,202.43 1026.38,208.29 1028.35,208.43 1030.31,205.02 1032.28,211.04 1034.24,211.33 1036.21,203.76 1038.17,216.75 1040.14,206.47 1042.10,207.46 1044.07,207.66 1046.03,215.23 1048.00,208.99 1049.96,205.20 1051.93,213.25 1053.89,204.43 1055.86,202.67 1057.82,209.21 1059.79,203.65 1061.75,202.64 1063.72,204.87 1065.68,200.33 1067.65,207.43 1069.61,204.51 1071.58,196.22 1073.54,208.09 1075.51,204.93 1077.47,203.84 1079.44,198.39 1081.40,198.56 1083.37,207.03 1085.33,198.32 1087.30,200.13 1089.26,197.76 1091.23,205.95 1093.19,199.12 1095.16,194.62 1097.12,194.78 1099.09,196.50 1101.05,197.99 1103.02,206.90 1104.98,196.78 1106.95,196.55 1108.91,195.49 1110.88,206.62 1112.84,207.24 1114.81,196.37 1116.77,204.53 1118.74,207.55 1120.70,199.42 1122.67,201.01 1124.63,189.52 1126.60,195.52 1128.56,191.61 1130.53,207.71 1132.49,197.14 1134.46,189.65 1136.42,196.50 1138.39,201.59 1140.35,187.77 1142.32,199.03 1144.28,181.73 1146.25,197.08 1148.21,194.97 1150.18,197.57 1152.14,187.54 1154.11,183.24 1156.07,197.09 1158.04,199.97 1160.00,193.24" fill="none" stroke="#111" stroke-width="2.5" stroke-dasharray=""/>
<polyline points="655.00,293.27 656.96,293.27 658.93,293.27 660.89,293.27 662.86,293.27 664.82,293.27 666.79,293.27 668.75,293.27 670.72,293.27 672.68,293.27 674.65,293.27 676.61,293.27 678.58,293.27 680.54,293.27 682.51,293.27 684.47,293.27 686.44,293.27 688.40,293.27 690.37,293.27 692.33,293.27 694.30,293.27 696.26,293.27 698.23,293.27 700.19,293.27 702.16,293.27 704.12,293.27 706.09,293.27 708.05,293.27 710.02,293.27 711.98,293.27 713.95,293.27 715.91,293.27 717.88,293.27 719.84,293.27 721.81,293.27 723.77,293.27 725.74,293.27 727.70,293.27 729.67,293.27 731.63,293.27 733.60,293.27 735.56,293.27 737.53,293.27 739.49,293.27 741.46,293.27 743.42,293.27 745.39,293.27 747.35,293.27 749.32,293.27 751.28,293.27 753.25,293.27 755.21,293.27 757.18,293.27 759.14,293.27 761.11,293.27 763.07,293.27 765.04,293.27 767.00,293.27 768.97,293.27 770.93,293.27 772.90,293.27 774.86,293.27 776.83,293.27 778.79,293.27 780.76,293.27 782.72,293.27 784.69,293.27 786.65,293.27 788.62,293.27 790.58,293.27 792.55,293.27 794.51,293.27 796.48,293.27 798.44,293.27 800.41,293.27 802.37,293.27 804.34,293.27 806.30,293.27 808.27,293.27 810.23,293.27 812.20,293.27 814.16,293.27 816.13,293.27 818.09,293.27 820.06,293.27 822.02,293.27 823.99,293.27 825.95,293.27 827.92,293.27 829.88,293.27 831.85,293.27 833.81,293.27 835.78,293.27 837.74,293.27 839.71,293.27 841.67,293.27 843.64,293.27 845.60,293.27 847.57,293.27 849.53,293.27 851.50,293.27 853.46,293.27 855.43,293.27 857.39,293.27 859.36,293.27 861.32,293.27 863.29,293.27 865.25,293.27 867.22,293.27 869.18,293.27 871.15,293.27 873.11,293.27 875.08,293.27 877.04,293.27 879.01,293.27 880.97,293.27 882.94,293.27 884.90,293.27 886.87,293.27 888.83,293.27 890.80,293.27 892.76,293.27 894.73,293.27 896.69,293.27 898.66,293.27 900.62,293.27 902.59,293.27 904.55,293.27 906.52,293.27 908.48,293.27 910.45,293.27 912.41,293.27 914.38,293.27 916.34,293.27 918.31,293.27 920.27,293.27 922.24,293.27 924.20,293.27 926.17,293.27 928.13,293.27 930.10,293.27 932.06,293.27 934.03,293.27 935.99,293.27 937.96,293.27 939.92,293.27 941.89,293.27 943.85,293.27 945.82,293.27 947.78,293.27 949.75,293.27 951.71,293.27 953.68,293.27 955.64,293.27 957.61,293.27 959.57,293.27 961.54,293.27 963.50,293.27 965.47,293.27 967.43,293.27 969.40,293.27 971.36,293.27 973.33,293.27 975.29,293.27 977.26,293.27 979.22,293.27 981.19,293.27 983.15,293.27 985.12,293.27 987.08,293.27 989.05,293.27 991.01,293.27 992.98,293.27 994.94,293.27 996.91,293.27 998.87,293.27 1000.84,293.27 1002.80,293.27 1004.77,293.27 1006.73,293.27 1008.70,293.27 1010.66,293.27 1012.63,293.27 1014.59,293.27 1016.56,293.27 1018.52,293.27 1020.49,293.27 1022.45,293.27 1024.42,293.27 1026.38,293.27 1028.35,293.27 1030.31,293.27 1032.28,293.27 1034.24,293.27 1036.21,293.27 1038.17,293.27 1040.14,293.27 1042.10,293.27 1044.07,293.27 1046.03,293.27 1048.00,293.27 1049.96,293.27 1051.93,293.27 1053.89,293.27 1055.86,293.27 1057.82,293.27 1059.79,293.27 1061.75,293.27 1063.72,293.27 1065.68,293.27 1067.65,293.27 1069.61,293.27 1071.58,293.27 1073.54,293.27 1075.51,293.27 1077.47,293.27 1079.44,293.27 1081.40,293.27 1083.37,293.27 1085.33,293.27 1087.30,293.27 1089.26,293.27 1091.23,293.27 1093.19,293.27 1095.16,293.27 1097.12,293.27 1099.09,293.27 1101.05,293.27 1103.02,293.27 1104.98,293.27 1106.95,293.27 1108.91,293.27 1110.88,293.27 1112.84,293.27 1114.81,293.27 1116.77,293.27 1118.74,293.27 1120.70,293.27 1122.67,293.27 1124.63,293.27 1126.60,293.27 1128.56,293.27 1130.53,293.27 1132.49,293.27 1134.46,293.27 1136.42,293.27 1138.39,293.27 1140.35,293.27 1142.32,293.27 1144.28,293.27 1146.25,293.27 1148.21,293.27 1150.18,293.27 1152.14,293.27 1154.11,293.27 1156.07,293.27 1158.04,293.27 1160.00,293.27" fill="none" stroke="#b5222c" stroke-width="2.5" stroke-dasharray="6 4"/>
<text x="655.00" y="333" text-anchor="middle" font-size="12">2,048</text>
<text x="1160.00" y="333" text-anchor="middle" font-size="12">265,216</text>
<text x="907.5" y="353" text-anchor="middle" font-size="12">Verified tasks at evaluation end</text>
<text x="65" y="390" font-size="19">Curve intervals</text>
<path d="M65 555.00h505" stroke="#ddd"/><text x="56" y="560.00" text-anchor="end" font-size="12">-1.5%</text>
<path d="M65 538.27h505" stroke="#ddd"/><text x="56" y="543.27" text-anchor="end" font-size="12">0.0%</text>
<path d="M65 410.00h505" stroke="#ddd"/><text x="56" y="415.00" text-anchor="end" font-size="12">11.6%</text>
<polyline points="65.00,537.46 66.96,536.17 68.93,534.75 70.89,535.25 72.86,534.58 74.82,533.06 76.79,533.27 78.75,532.54 80.72,531.19 82.68,530.53 84.65,530.20 86.61,530.21 88.58,529.47 90.54,528.09 92.51,527.39 94.47,527.27 96.44,526.86 98.40,526.42 100.37,524.84 102.33,522.78 104.30,523.73 106.26,523.52 108.23,522.77 110.19,524.52 112.16,521.38 114.12,522.56 116.09,519.79 118.05,518.67 120.02,519.47 121.98,519.77 123.95,516.91 125.91,518.29 127.88,516.81 129.84,518.01 131.81,516.89 133.77,518.23 135.74,517.23 137.70,513.75 139.67,514.39 141.63,512.25 143.60,513.34 145.56,510.47 147.53,517.11 149.49,509.13 151.46,507.02 153.42,505.29 155.39,507.89 157.35,505.94 159.32,505.08 161.28,507.95 163.25,505.43 165.21,504.90 167.18,507.84 169.14,506.13 171.11,503.41 173.07,502.13 175.04,503.73 177.00,501.15 178.97,506.73 180.93,495.96 182.90,498.80 184.86,501.95 186.83,497.94 188.79,501.94 190.76,496.12 192.72,499.68 194.69,495.80 196.65,498.99 198.62,495.35 200.58,498.31 202.55,499.34 204.51,493.64 206.48,494.96 208.44,494.12 210.41,494.94 212.37,486.97 214.34,494.90 216.30,494.69 218.27,490.01 220.23,491.09 222.20,489.13 224.16,489.83 226.13,492.32 228.09,486.70 230.06,488.52 232.02,492.31 233.99,490.41 235.95,478.97 237.92,490.13 239.88,485.99 241.85,484.79 243.81,481.03 245.78,488.68 247.74,486.71 249.71,482.53 251.67,486.05 253.64,484.27 255.60,483.61 257.57,472.41 259.53,487.66 261.50,484.89 263.46,473.92 265.43,481.53 267.39,487.43 269.36,474.72 271.32,479.42 273.29,485.13 275.25,477.03 277.22,477.37 279.18,484.18 281.15,475.35 283.11,479.81 285.08,478.88 287.04,473.21 289.01,475.61 290.97,480.39 292.94,476.03 294.90,478.13 296.87,480.26 298.83,478.35 300.80,479.88 302.76,478.61 304.73,479.04 306.69,475.59 308.66,483.28 310.62,475.87 312.59,471.26 314.55,464.41 316.52,471.99 318.48,478.48 320.45,464.25 322.41,471.50 324.38,477.16 326.34,471.90 328.31,472.35 330.27,469.29 332.24,475.85 334.20,465.61 336.17,472.16 338.13,466.47 340.10,468.87 342.06,473.36 344.03,469.71 345.99,469.79 347.96,459.29 349.92,464.85 351.89,463.08 353.85,464.83 355.82,470.28 357.78,466.09 359.75,469.82 361.71,473.28 363.68,461.32 365.64,466.37 367.61,463.38 369.57,466.58 371.54,469.01 373.50,453.82 375.47,452.70 377.43,458.57 379.40,464.90 381.36,459.52 383.33,465.62 385.29,462.72 387.26,457.84 389.22,455.23 391.19,469.11 393.15,469.16 395.12,460.89 397.08,466.86 399.05,454.98 401.01,452.00 402.98,456.91 404.94,456.81 406.91,460.86 408.87,456.06 410.84,454.14 412.80,458.52 414.77,451.90 416.73,452.66 418.70,452.88 420.66,454.78 422.63,445.44 424.59,455.26 426.56,451.99 428.52,456.14 430.49,459.93 432.45,463.98 434.42,446.73 436.38,453.34 438.35,454.07 440.31,449.56 442.28,456.70 444.24,454.41 446.21,447.18 448.17,461.87 450.14,450.65 452.10,453.69 454.07,452.76 456.03,460.57 458.00,454.30 459.96,450.57 461.93,458.64 463.89,448.35 465.86,448.15 467.82,454.42 469.79,448.31 471.75,447.47 473.72,449.89 475.68,445.03 477.65,452.00 479.61,450.28 481.58,441.13 483.54,452.32 485.51,449.77 487.47,449.72 489.44,443.39 491.40,443.11 493.37,452.21 495.33,443.26 497.30,446.16 499.26,443.28 501.23,450.46 503.19,444.46 505.16,440.47 507.12,439.49 509.09,441.15 511.05,443.41 513.02,452.82 514.98,441.54 516.95,442.35 518.91,440.04 520.88,452.75 522.84,452.25 524.81,442.36 526.77,449.90 528.74,453.03 530.70,445.57 532.67,446.57 534.63,434.91 536.60,441.06 538.56,437.39 540.53,452.13 542.49,441.90 544.46,434.81 546.42,442.13 548.39,447.47 550.35,432.21 552.32,445.18 554.28,426.73 556.25,443.36 558.21,440.86 560.18,442.49 562.14,431.89 564.11,428.71 566.07,442.74 568.04,445.06 570.00,435.51" fill="none" stroke="#111" stroke-width="2.5" stroke-dasharray=""/>
<polyline points="65.00,538.27 66.96,538.27 68.93,538.27 70.89,538.27 72.86,538.27 74.82,538.27 76.79,538.27 78.75,538.27 80.72,538.27 82.68,538.27 84.65,538.27 86.61,538.27 88.58,538.27 90.54,538.27 92.51,538.27 94.47,538.27 96.44,538.27 98.40,538.27 100.37,538.27 102.33,538.27 104.30,538.27 106.26,538.27 108.23,538.27 110.19,538.27 112.16,538.27 114.12,538.27 116.09,538.27 118.05,538.27 120.02,538.27 121.98,538.27 123.95,538.27 125.91,538.27 127.88,538.27 129.84,538.27 131.81,538.27 133.77,538.27 135.74,538.27 137.70,538.27 139.67,538.27 141.63,538.27 143.60,538.27 145.56,538.27 147.53,538.27 149.49,538.27 151.46,538.27 153.42,538.27 155.39,538.27 157.35,538.27 159.32,538.27 161.28,538.27 163.25,538.27 165.21,538.27 167.18,538.27 169.14,538.27 171.11,538.27 173.07,538.27 175.04,538.27 177.00,538.27 178.97,538.27 180.93,538.27 182.90,538.27 184.86,538.27 186.83,538.27 188.79,538.27 190.76,538.27 192.72,538.27 194.69,538.27 196.65,538.27 198.62,538.27 200.58,538.27 202.55,538.27 204.51,538.27 206.48,538.27 208.44,538.27 210.41,538.27 212.37,538.27 214.34,538.27 216.30,538.27 218.27,538.27 220.23,538.27 222.20,538.27 224.16,538.27 226.13,538.27 228.09,538.27 230.06,538.27 232.02,538.27 233.99,538.27 235.95,538.27 237.92,538.27 239.88,538.27 241.85,538.27 243.81,538.27 245.78,538.27 247.74,538.27 249.71,538.27 251.67,538.27 253.64,538.27 255.60,538.27 257.57,538.27 259.53,538.27 261.50,538.27 263.46,538.27 265.43,538.27 267.39,538.27 269.36,538.27 271.32,538.27 273.29,538.27 275.25,538.27 277.22,538.27 279.18,538.27 281.15,538.27 283.11,538.27 285.08,538.27 287.04,538.27 289.01,538.27 290.97,538.27 292.94,538.27 294.90,538.27 296.87,538.27 298.83,538.27 300.80,538.27 302.76,538.27 304.73,538.27 306.69,538.27 308.66,538.27 310.62,538.27 312.59,538.27 314.55,538.27 316.52,538.27 318.48,538.27 320.45,538.27 322.41,538.27 324.38,538.27 326.34,538.27 328.31,538.27 330.27,538.27 332.24,538.27 334.20,538.27 336.17,538.27 338.13,538.27 340.10,538.27 342.06,538.27 344.03,538.27 345.99,538.27 347.96,538.27 349.92,538.27 351.89,538.27 353.85,538.27 355.82,538.27 357.78,538.27 359.75,538.27 361.71,538.27 363.68,538.27 365.64,538.27 367.61,538.27 369.57,538.27 371.54,538.27 373.50,538.27 375.47,538.27 377.43,538.27 379.40,538.27 381.36,538.27 383.33,538.27 385.29,538.27 387.26,538.27 389.22,538.27 391.19,538.27 393.15,538.27 395.12,538.27 397.08,538.27 399.05,538.27 401.01,538.27 402.98,538.27 404.94,538.27 406.91,538.27 408.87,538.27 410.84,538.27 412.80,538.27 414.77,538.27 416.73,538.27 418.70,538.27 420.66,538.27 422.63,538.27 424.59,538.27 426.56,538.27 428.52,538.27 430.49,538.27 432.45,538.27 434.42,538.27 436.38,538.27 438.35,538.27 440.31,538.27 442.28,538.27 444.24,538.27 446.21,538.27 448.17,538.27 450.14,538.27 452.10,538.27 454.07,538.27 456.03,538.27 458.00,538.27 459.96,538.27 461.93,538.27 463.89,538.27 465.86,538.27 467.82,538.27 469.79,538.27 471.75,538.27 473.72,538.27 475.68,538.27 477.65,538.27 479.61,538.27 481.58,538.27 483.54,538.27 485.51,538.27 487.47,538.27 489.44,538.27 491.40,538.27 493.37,538.27 495.33,538.27 497.30,538.27 499.26,538.27 501.23,538.27 503.19,538.27 505.16,538.27 507.12,538.27 509.09,538.27 511.05,538.27 513.02,538.27 514.98,538.27 516.95,538.27 518.91,538.27 520.88,538.27 522.84,538.27 524.81,538.27 526.77,538.27 528.74,538.27 530.70,538.27 532.67,538.27 534.63,538.27 536.60,538.27 538.56,538.27 540.53,538.27 542.49,538.27 544.46,538.27 546.42,538.27 548.39,538.27 550.35,538.27 552.32,538.27 554.28,538.27 556.25,538.27 558.21,538.27 560.18,538.27 562.14,538.27 564.11,538.27 566.07,538.27 568.04,538.27 570.00,538.27" fill="none" stroke="#b5222c" stroke-width="2.5" stroke-dasharray="6 4"/>
<text x="65.00" y="578" text-anchor="middle" font-size="12">2,048</text>
<text x="570.00" y="578" text-anchor="middle" font-size="12">265,216</text>
<text x="317.5" y="598" text-anchor="middle" font-size="12">Verified tasks at evaluation end</text>
<text x="655" y="390" font-size="19">Exact square tests</text>
<path d="M655 555.00h505" stroke="#ddd"/><text x="646" y="560.00" text-anchor="end" font-size="12">-2.0%</text>
<path d="M655 538.27h505" stroke="#ddd"/><text x="646" y="543.27" text-anchor="end" font-size="12">0.0%</text>
<path d="M655 410.00h505" stroke="#ddd"/><text x="646" y="415.00" text-anchor="end" font-size="12">15.5%</text>
<polyline points="655.00,535.58 656.96,532.40 658.93,530.98 660.89,529.13 662.86,527.94 664.82,522.24 666.79,524.73 668.75,521.06 670.72,523.14 672.68,519.48 674.65,516.30 676.61,520.42 678.58,511.79 680.54,512.03 682.51,516.43 684.47,511.85 686.44,510.70 688.40,512.88 690.37,508.99 692.33,502.51 694.30,511.13 696.26,507.19 698.23,507.80 700.19,508.66 702.16,503.41 704.12,509.78 706.09,503.24 708.05,492.88 710.02,502.05 711.98,498.19 713.95,494.51 715.91,498.91 717.88,498.47 719.84,496.37 721.81,501.62 723.77,490.10 725.74,492.62 727.70,476.27 729.67,484.17 731.63,492.37 733.60,494.81 735.56,487.88 737.53,486.10 739.49,483.40 741.46,491.77 743.42,479.47 745.39,488.19 747.35,477.56 749.32,479.81 751.28,469.81 753.25,487.92 755.21,481.30 757.18,496.61 759.14,480.41 761.11,483.21 763.07,482.90 765.04,470.67 767.00,477.54 768.97,491.67 770.93,489.11 772.90,481.86 774.86,499.31 776.83,485.43 778.79,478.72 780.76,475.66 782.72,495.93 784.69,488.85 786.65,492.02 788.62,481.89 790.58,494.82 792.55,510.14 794.51,481.11 796.48,491.22 798.44,487.07 800.41,476.95 802.37,474.61 804.34,471.54 806.30,478.62 808.27,470.99 810.23,485.09 812.20,479.74 814.16,470.74 816.13,494.20 818.09,466.92 820.06,490.17 822.02,500.73 823.99,491.16 825.95,472.62 827.92,476.31 829.88,487.17 831.85,475.64 833.81,459.58 835.78,480.31 837.74,478.92 839.71,481.15 841.67,481.84 843.64,485.89 845.60,485.19 847.57,491.27 849.53,468.29 851.50,502.33 853.46,471.64 855.43,491.27 857.39,475.07 859.36,486.43 861.32,482.60 863.29,481.24 865.25,478.22 867.22,469.66 869.18,475.81 871.15,469.57 873.11,488.74 875.08,477.32 877.04,485.58 879.01,461.06 880.97,492.59 882.94,474.96 884.90,487.48 886.87,485.91 888.83,479.86 890.80,488.23 892.76,484.54 894.73,491.79 896.69,494.92 898.66,473.04 900.62,479.06 902.59,475.19 904.55,474.41 906.52,474.90 908.48,492.45 910.45,474.94 912.41,484.61 914.38,469.40 916.34,476.25 918.31,465.44 920.27,484.03 922.24,480.06 924.20,459.17 926.17,462.06 928.13,485.81 930.10,473.89 932.06,478.66 934.03,451.72 935.99,471.54 937.96,467.84 939.92,468.18 941.89,466.72 943.85,465.68 945.82,472.97 947.78,470.31 949.75,481.59 951.71,467.68 953.68,476.84 955.64,446.17 957.61,473.42 959.57,465.90 961.54,480.32 963.50,457.08 965.47,460.97 967.43,466.67 969.40,470.37 971.36,465.82 973.33,467.85 975.29,469.01 977.26,474.12 979.22,452.16 981.19,486.03 983.15,505.03 985.12,440.92 987.08,470.04 989.05,462.89 991.01,481.68 992.98,460.64 994.94,460.81 996.91,459.49 998.87,483.05 1000.84,454.52 1002.80,460.11 1004.77,461.79 1006.73,476.32 1008.70,451.43 1010.66,460.20 1012.63,456.20 1014.59,484.59 1016.56,460.40 1018.52,464.01 1020.49,473.98 1022.45,475.85 1024.42,452.27 1026.38,474.33 1028.35,458.88 1030.31,468.03 1032.28,454.12 1034.24,466.58 1036.21,472.96 1038.17,463.28 1040.14,471.24 1042.10,458.64 1044.07,443.46 1046.03,476.88 1048.00,463.50 1049.96,458.69 1051.93,474.29 1053.89,461.05 1055.86,457.37 1057.82,465.02 1059.79,451.17 1061.75,485.34 1063.72,465.16 1065.68,433.91 1067.65,460.04 1069.61,450.58 1071.58,457.37 1073.54,472.36 1075.51,465.36 1077.47,454.60 1079.44,463.45 1081.40,446.50 1083.37,460.80 1085.33,466.90 1087.30,458.82 1089.26,452.13 1091.23,470.51 1093.19,447.93 1095.16,462.07 1097.12,450.13 1099.09,431.24 1101.05,455.92 1103.02,464.57 1104.98,452.13 1106.95,459.07 1108.91,438.74 1110.88,474.96 1112.84,462.65 1114.81,442.03 1116.77,455.32 1118.74,473.27 1120.70,465.09 1122.67,442.70 1124.63,443.55 1126.60,450.13 1128.56,447.61 1130.53,465.17 1132.49,448.06 1134.46,445.94 1136.42,461.93 1138.39,472.10 1140.35,444.13 1142.32,463.21 1144.28,450.91 1146.25,474.56 1148.21,466.81 1150.18,439.13 1152.14,443.04 1154.11,434.43 1156.07,463.10 1158.04,426.73 1160.00,431.73" fill="none" stroke="#111" stroke-width="2.5" stroke-dasharray=""/>
<polyline points="655.00,538.27 656.96,538.27 658.93,538.27 660.89,538.27 662.86,538.27 664.82,538.27 666.79,538.27 668.75,538.27 670.72,538.27 672.68,538.27 674.65,538.27 676.61,538.27 678.58,538.27 680.54,538.27 682.51,538.27 684.47,538.27 686.44,538.27 688.40,538.27 690.37,538.27 692.33,538.27 694.30,538.27 696.26,538.27 698.23,538.27 700.19,538.27 702.16,538.27 704.12,538.27 706.09,538.27 708.05,538.27 710.02,538.27 711.98,538.27 713.95,538.27 715.91,538.27 717.88,538.27 719.84,538.27 721.81,538.27 723.77,538.27 725.74,538.27 727.70,538.27 729.67,538.27 731.63,538.27 733.60,538.27 735.56,538.27 737.53,538.27 739.49,538.27 741.46,538.27 743.42,538.27 745.39,538.27 747.35,538.27 749.32,538.27 751.28,538.27 753.25,538.27 755.21,538.27 757.18,538.27 759.14,538.27 761.11,538.27 763.07,538.27 765.04,538.27 767.00,538.27 768.97,538.27 770.93,538.27 772.90,538.27 774.86,538.27 776.83,538.27 778.79,538.27 780.76,538.27 782.72,538.27 784.69,538.27 786.65,538.27 788.62,538.27 790.58,538.27 792.55,538.27 794.51,538.27 796.48,538.27 798.44,538.27 800.41,538.27 802.37,538.27 804.34,538.27 806.30,538.27 808.27,538.27 810.23,538.27 812.20,538.27 814.16,538.27 816.13,538.27 818.09,538.27 820.06,538.27 822.02,538.27 823.99,538.27 825.95,538.27 827.92,538.27 829.88,538.27 831.85,538.27 833.81,538.27 835.78,538.27 837.74,538.27 839.71,538.27 841.67,538.27 843.64,538.27 845.60,538.27 847.57,538.27 849.53,538.27 851.50,538.27 853.46,538.27 855.43,538.27 857.39,538.27 859.36,538.27 861.32,538.27 863.29,538.27 865.25,538.27 867.22,538.27 869.18,538.27 871.15,538.27 873.11,538.27 875.08,538.27 877.04,538.27 879.01,538.27 880.97,538.27 882.94,538.27 884.90,538.27 886.87,538.27 888.83,538.27 890.80,538.27 892.76,538.27 894.73,538.27 896.69,538.27 898.66,538.27 900.62,538.27 902.59,538.27 904.55,538.27 906.52,538.27 908.48,538.27 910.45,538.27 912.41,538.27 914.38,538.27 916.34,538.27 918.31,538.27 920.27,538.27 922.24,538.27 924.20,538.27 926.17,538.27 928.13,538.27 930.10,538.27 932.06,538.27 934.03,538.27 935.99,538.27 937.96,538.27 939.92,538.27 941.89,538.27 943.85,538.27 945.82,538.27 947.78,538.27 949.75,538.27 951.71,538.27 953.68,538.27 955.64,538.27 957.61,538.27 959.57,538.27 961.54,538.27 963.50,538.27 965.47,538.27 967.43,538.27 969.40,538.27 971.36,538.27 973.33,538.27 975.29,538.27 977.26,538.27 979.22,538.27 981.19,538.27 983.15,538.27 985.12,538.27 987.08,538.27 989.05,538.27 991.01,538.27 992.98,538.27 994.94,538.27 996.91,538.27 998.87,538.27 1000.84,538.27 1002.80,538.27 1004.77,538.27 1006.73,538.27 1008.70,538.27 1010.66,538.27 1012.63,538.27 1014.59,538.27 1016.56,538.27 1018.52,538.27 1020.49,538.27 1022.45,538.27 1024.42,538.27 1026.38,538.27 1028.35,538.27 1030.31,538.27 1032.28,538.27 1034.24,538.27 1036.21,538.27 1038.17,538.27 1040.14,538.27 1042.10,538.27 1044.07,538.27 1046.03,538.27 1048.00,538.27 1049.96,538.27 1051.93,538.27 1053.89,538.27 1055.86,538.27 1057.82,538.27 1059.79,538.27 1061.75,538.27 1063.72,538.27 1065.68,538.27 1067.65,538.27 1069.61,538.27 1071.58,538.27 1073.54,538.27 1075.51,538.27 1077.47,538.27 1079.44,538.27 1081.40,538.27 1083.37,538.27 1085.33,538.27 1087.30,538.27 1089.26,538.27 1091.23,538.27 1093.19,538.27 1095.16,538.27 1097.12,538.27 1099.09,538.27 1101.05,538.27 1103.02,538.27 1104.98,538.27 1106.95,538.27 1108.91,538.27 1110.88,538.27 1112.84,538.27 1114.81,538.27 1116.77,538.27 1118.74,538.27 1120.70,538.27 1122.67,538.27 1124.63,538.27 1126.60,538.27 1128.56,538.27 1130.53,538.27 1132.49,538.27 1134.46,538.27 1136.42,538.27 1138.39,538.27 1140.35,538.27 1142.32,538.27 1144.28,538.27 1146.25,538.27 1148.21,538.27 1150.18,538.27 1152.14,538.27 1154.11,538.27 1156.07,538.27 1158.04,538.27 1160.00,538.27" fill="none" stroke="#b5222c" stroke-width="2.5" stroke-dasharray="6 4"/>
<text x="655.00" y="578" text-anchor="middle" font-size="12">2,048</text>
<text x="1160.00" y="578" text-anchor="middle" font-size="12">265,216</text>
<text x="907.5" y="598" text-anchor="middle" font-size="12">Verified tasks at evaluation end</text>
<text x="38" y="679" font-size="15">Y: reduction in mean absolute log1p error versus context baseline. Above zero = lower prediction error.</text>
<text x="38" y="706" font-size="15">Historical backfills are retrospective. Better predictions do not establish better discovery odds.</text></g></svg>